<svg width="560" height="560" viewBox="0 0 560 560" fill="none" xmlns="http://www.w3.org/2000/svg">
<path d="M72.3492 435.696C72.3492 435.696 -12.0232 337.094 107.948 305.415C227.92 273.736 259.532 246.629 316.252 164.528C372.971 82.4261 616.997 104.395 517.734 439.488L72.3492 435.696Z" fill="#E2EEFC"/>
<path d="M509.709 322.053H417.869V432.23H509.709V322.053Z" fill="#CCDEFF"/>
<path d="M446.312 327.818H423.632V332.018H446.312V327.818Z" fill="#E2EEFC"/>
<path d="M473.752 327.818H451.072V332.018H473.752V327.818Z" fill="#E2EEFC"/>
<path d="M500.632 327.818H477.952V332.018H500.632V327.818Z" fill="#E2EEFC"/>
<path d="M446.592 335.378H423.912V339.578H446.592V335.378Z" fill="#E2EEFC"/>
<path d="M474.032 335.378H451.352V339.578H474.032V335.378Z" fill="#E2EEFC"/>
<path d="M500.912 335.378H478.232V339.578H500.912V335.378Z" fill="#E2EEFC"/>
<path d="M446.592 342.938H423.912V347.138H446.592V342.938Z" fill="#E2EEFC"/>
<path d="M474.032 342.938H451.352V347.138H474.032V342.938Z" fill="#E2EEFC"/>
<path d="M500.912 342.938H478.232V347.138H500.912V342.938Z" fill="#E2EEFC"/>
<path d="M446.872 350.498H424.192V354.698H446.872V350.498Z" fill="#E2EEFC"/>
<path d="M474.312 350.498H451.632V354.698H474.312V350.498Z" fill="#E2EEFC"/>
<path d="M501.192 350.498H478.512V354.698H501.192V350.498Z" fill="#E2EEFC"/>
<path d="M447.152 358.059H424.472V362.259H447.152V358.059Z" fill="#E2EEFC"/>
<path d="M474.592 358.059H451.912V362.259H474.592V358.059Z" fill="#E2EEFC"/>
<path d="M501.472 358.059H478.792V362.259H501.472V358.059Z" fill="#E2EEFC"/>
<path d="M447.152 365.618H424.472V369.818H447.152V365.618Z" fill="#E2EEFC"/>
<path d="M474.592 365.618H451.912V369.818H474.592V365.618Z" fill="#E2EEFC"/>
<path d="M501.472 365.618H478.792V369.818H501.472V365.618Z" fill="#E2EEFC"/>
<path d="M501.472 377.14H424.472V405.14H501.472V377.14Z" fill="#E2EEFC"/>
<path d="M511.77 297.229H483.21V432.231H511.77V297.229Z" fill="#CCDEFF"/>
<path d="M517.468 309.59H509.068V432.23H517.468V309.59Z" fill="#CCDEFF"/>
<path d="M140.364 361.39H96.124V432.51H140.364V361.39Z" fill="#CCDEFF"/>
<path d="M133.664 368.416H100.764V374.856H133.664V368.416Z" fill="#E2EEFC"/>
<path d="M133.664 379.17H100.764V385.61H133.664V379.17Z" fill="#E2EEFC"/>
<path d="M133.681 389.928H100.781V396.368H133.681V389.928Z" fill="#E2EEFC"/>
<path d="M133.681 400.464H100.781V406.904H133.681V400.464Z" fill="#E2EEFC"/>
<path d="M172.595 338.71H128.355V432.51H172.595V338.71Z" fill="#CCDEFF"/>
<path d="M267.266 357.19H168.395V432.51H267.266V357.19Z" fill="#CCDEFF"/>
<path d="M96.1241 390.79H71.4841V432.51H96.1241V390.79Z" fill="#CCDEFF"/>
<path d="M185.651 321.874H184.811V357.193H185.651V321.874Z" fill="#CCDEFF"/>
<path d="M195.082 330.002H194.242V357.19H195.082V330.002Z" fill="#CCDEFF"/>
<path d="M178.206 316.235H176.246V357.19H178.206V316.235Z" fill="#CCDEFF"/>
<path d="M109.441 351.198H101.321V361.393H109.441V351.198Z" fill="#CCDEFF"/>
<path d="M149.355 327.695H131.715V338.71H149.355V327.695Z" fill="#CCDEFF"/>
<path d="M164.783 316.235H157.223V338.71H164.783V316.235Z" fill="#CCDEFF"/>
<path d="M120.591 336.714H113.871V361.393H120.591V336.714Z" fill="#CCDEFF"/>
<path d="M81.1469 394.85H74.5669V401.43H81.1469V394.85Z" fill="#E2EEFC"/>
<path d="M91.9269 394.85H85.3469V401.43H91.9269V394.85Z" fill="#E2EEFC"/>
<path d="M81.1469 405.91H74.5669V412.49H81.1469V405.91Z" fill="#E2EEFC"/>
<path d="M91.9269 405.91H85.3469V412.49H91.9269V405.91Z" fill="#E2EEFC"/>
<path d="M81.1469 416.97H74.5669V423.55H81.1469V416.97Z" fill="#E2EEFC"/>
<path d="M91.9269 416.97H85.3469V423.55H91.9269V416.97Z" fill="#E2EEFC"/>
<path d="M136.2 344.671H133.68V429.511H136.2V344.671Z" fill="#E2EEFC"/>
<path d="M147.4 344.671H144.88V429.511H147.4V344.671Z" fill="#E2EEFC"/>
<path d="M157.483 344.671H154.963V429.511H157.483V344.671Z" fill="#E2EEFC"/>
<path d="M168.126 344.671H165.606V429.511H168.126V344.671Z" fill="#E2EEFC"/>
<path d="M417.869 397.944H372.509V432.471H417.869V397.944Z" fill="#CCDEFF"/>
<path d="M460.44 423.755H458.76V425.435H460.44V423.755Z" fill="#CCDEFF"/>
<path d="M521.189 432.51H45.7689C41.1297 432.51 37.3689 436.271 37.3689 440.91C37.3689 445.549 41.1297 449.31 45.7689 449.31H521.189C525.829 449.31 529.589 445.549 529.589 440.91C529.589 436.271 525.828 432.51 521.189 432.51Z" fill="#1A1A35"/>
<path d="M399.947 139.065C399.947 123.385 412.32 110.689 427.585 110.689C442.851 110.689 455.224 123.393 455.224 139.065C455.224 154.736 428.714 183.4 428.714 183.4C428.714 183.4 399.947 154.736 399.947 139.065Z" fill="#004894"/>
<path d="M427.585 154.073C435.857 154.073 442.563 147.367 442.563 139.095C442.563 130.824 435.857 124.118 427.585 124.118C419.314 124.118 412.608 130.824 412.608 139.095C412.608 147.367 419.314 154.073 427.585 154.073Z" fill="white"/>
<path d="M145.774 229.499V405.46H434.454V315.58C432.165 315.785 429.874 315.92 427.58 315.986L425.931 316.022C413.768 316.226 401.651 314.48 390.04 310.85C389.998 310.694 389.959 310.534 389.914 310.38L387.492 301.286L387.254 300.39C388.919 299.006 390.646 297.7 392.434 296.47C401.422 287.927 413.577 282.904 425.95 282.19C426.51 282.159 427.05 282.136 427.599 282.122H428.176C430.279 282.087 432.382 282.18 434.473 282.402V229.482L145.774 229.499Z" fill="#38385C"/>
<path d="M126.913 405.459V409.155C126.913 416.46 129.814 423.465 134.979 428.63C140.144 433.795 147.149 436.696 154.454 436.696H425.298C432.602 436.696 439.607 433.795 444.772 428.63C449.937 423.465 452.838 416.46 452.838 409.155V405.459H126.913Z" fill="#1A1A35"/>
<path d="M152.648 244.247V399.963H427.585V315.988L425.936 316.025C413.771 316.229 401.652 314.483 390.04 310.853C389.998 310.696 389.959 310.537 389.914 310.383L387.492 301.288L387.254 300.392C388.919 299.009 390.646 297.702 392.434 296.472C401.422 287.929 413.577 282.906 425.95 282.192C426.51 282.161 427.051 282.139 427.599 282.125V244.247H152.648Z" fill="#1A1A35"/>
<path d="M391.759 296.674C389.973 297.898 388.246 299.205 386.579 300.594L386.817 301.49L389.239 310.584C389.284 310.741 389.326 310.901 389.365 311.055C400.981 314.686 413.104 316.432 425.273 316.226V397.169H154.958V246.19H425.273V282.394C412.902 283.108 400.747 288.12 391.759 296.674Z" fill="white"/>
<path d="M283.609 316.716C285.14 313.69 287.401 311.094 290.187 309.162C292.974 307.231 296.199 306.025 299.569 305.653L293.672 312.847C296.495 309.386 300.953 307.093 305.391 307.588C309.829 308.084 313.919 311.76 314.196 316.215C314.474 320.67 310.226 325.06 305.822 324.335C298.163 323.083 290.305 324.217 283.312 327.583C283.562 323.624 283.811 319.67 283.609 316.716Z" fill="#FFCBBD"/>
<path d="M425.933 273.761H387.271V330.932H425.933V273.761Z" fill="white"/>
<path d="M305.236 232.996H274.994V239.044H305.236V232.996Z" fill="#4C231F"/>
<path d="M434.356 273.761H427.585V330.932H434.356V273.761Z" fill="#38385C"/>
<path d="M427.585 273.761H425.275V330.932H427.585V273.761Z" fill="#1A1A35"/>
<path d="M334.172 173.519C332.886 177.491 330.413 180.972 327.085 183.492C323.936 183.75 320.781 183.947 317.621 184.083C317.133 183.276 316.406 182.64 315.54 182.264C314.675 181.889 313.714 181.791 312.791 181.986C310.834 182.402 308.819 182.473 306.838 182.196C304.502 181.883 302.277 181.007 300.356 179.642L300.129 179.491C299.641 179.192 299.089 179.016 298.518 178.977C297.947 178.938 297.375 179.037 296.851 179.266C296.327 179.495 295.866 179.848 295.508 180.294C295.149 180.74 294.904 181.265 294.792 181.826C294.759 181.989 294.728 182.151 294.703 182.314C294.619 182.75 294.549 183.19 294.49 183.632C294.468 183.781 294.448 183.932 294.428 184.083C293.753 189.434 294.498 194.867 296.587 199.839C294.347 199.038 292.76 197.106 291.102 195.409C289.444 193.712 287.375 192.077 285.006 192.175C282.638 192.273 281.196 196.571 280.806 199.721C276.948 196.655 274.7 191.489 274.03 186.001C273.739 183.618 273.745 181.207 274.05 178.825C275.976 169.991 283.892 162.831 294.084 161.644C304.427 160.44 313.897 165.763 317.694 174.124C321.849 173.45 326.058 173.168 330.266 173.284C329.11 175.231 327.493 176.866 325.559 178.044C328.723 177.856 331.702 176.056 333.486 173.457C333.715 173.48 333.945 173.496 334.172 173.519Z" fill="#38385C"/>
<path d="M306.79 223.44C300.738 226.286 293.811 226.646 287.496 224.442C289.15 222.185 291.012 220.046 292.068 217.462C292.426 216.582 292.678 215.663 292.818 214.723C293.182 212.229 292.826 209.682 291.794 207.382C292.287 207.394 292.78 207.434 293.269 207.502C296.428 210.302 299.585 213.102 302.742 215.902L302.968 216.104C303.459 218.884 304.793 221.445 306.79 223.44Z" fill="#FFCBBD"/>
<path d="M313.04 212.867C311.46 213.03 309.863 212.928 308.316 212.564C306.54 212.138 304.803 211.559 303.125 210.834C302.61 210.621 302.098 210.403 301.591 210.184C298.911 209.036 296.122 207.863 293.264 207.488C292.774 207.42 292.282 207.38 291.788 207.368C291.241 207.349 290.694 207.367 290.15 207.424C286.387 207.816 282.512 205.377 281.24 201.824C281.002 201.15 280.856 200.448 280.806 199.735C281.196 196.585 282.632 192.281 285.006 192.175C287.381 192.068 289.447 193.709 291.105 195.412C292.762 197.114 294.356 199.052 296.587 199.841C294.202 194.152 293.577 187.877 294.792 181.829C294.908 181.245 295.168 180.699 295.55 180.242C295.932 179.785 296.422 179.432 296.976 179.214C297.531 178.997 298.131 178.922 298.721 178.997C299.312 179.073 299.874 179.295 300.356 179.645C303.85 182.165 308.44 182.896 312.791 181.986C313.814 181.769 314.881 181.912 315.811 182.392C316.741 182.872 317.476 183.658 317.892 184.618C318.172 185.267 318.452 185.911 318.676 186.522C319.287 192.726 319.896 198.932 320.505 205.139C320.88 209.087 316.991 212.402 313.04 212.867Z" fill="#FFCBBD"/>
<path d="M302.94 215.913C302.94 215.972 302.96 216.031 302.968 216.09L302.742 215.888L293.269 207.488C296.125 207.863 298.914 209.037 301.596 210.185C302.102 210.403 302.614 210.62 303.131 210.834C302.808 212.209 302.707 213.627 302.831 215.034C302.857 215.333 302.894 215.626 302.94 215.913Z" fill="#EA5C46"/>
<path d="M206.506 328.821C205.445 329.732 204.41 330.676 203.4 331.654C204.385 330.656 205.421 329.71 206.506 328.821Z" stroke="#4A4540" stroke-miterlimit="10"/>
<path d="M206.506 328.821C205.445 329.732 204.41 330.676 203.4 331.654C204.385 330.656 205.421 329.71 206.506 328.821Z" stroke="#4A4540" stroke-miterlimit="10"/>
<path d="M302.96 216.09L302.733 215.888L302.932 215.913C302.96 215.972 302.96 216.031 302.96 216.09Z" fill="#EB624D"/>
<path d="M315.689 227.203C314.533 228.237 313.285 229.163 311.959 229.969C307.512 232.626 302.437 234.047 297.257 234.085C292.781 234.166 288.344 233.246 284.27 231.392C283.469 231.018 282.689 230.611 281.929 230.171C280.147 229.137 278.497 227.89 277.015 226.458C277.477 225.741 277.942 225.025 278.463 224.308C279.297 223.141 280.261 222.073 281.336 221.124C283.205 222.539 285.284 223.654 287.496 224.431C293.811 226.634 300.738 226.274 306.791 223.429C308.522 222.601 310.139 221.554 311.604 220.315L312.668 222.107C313.674 223.804 314.681 225.502 315.689 227.203Z" fill="#38385C"/>
<path d="M245.588 311.29C245.067 312.223 244.514 313.138 243.928 314.034C243.79 314.247 243.648 314.46 243.51 314.672C243.62 314.462 243.729 314.255 243.835 314.045C244.289 313.16 244.714 312.264 245.12 311.36C254.705 289.8 250.482 262.604 235.754 245C253.263 261.54 257.292 290.377 245.588 311.29Z" fill="#E46B15"/>
<path d="M245.588 311.29C245.067 312.223 244.514 313.138 243.928 314.034H243.832C242.878 314.143 241.923 314.266 240.971 314.409C227.948 316.338 214.956 321.843 206.506 328.815C217.356 319.477 230.95 313.519 245.115 311.352C245.28 311.332 245.428 311.307 245.588 311.29Z" fill="#E46B15"/>
<path d="M379.263 278.46C372.887 282.873 368.362 289.562 365.319 296.694C362.275 303.825 360.595 311.45 358.509 317.542C357 301.986 365.529 285.919 379.263 278.46Z" fill="#E46B15"/>
<path d="M379.263 278.46C372.887 282.873 368.362 289.562 365.319 296.694C362.275 303.825 360.595 311.45 358.509 317.542C357 301.986 365.529 285.919 379.263 278.46Z" fill="#E46B15"/>
<path d="M369.158 391.664V396.964H223.821V392.26C223.924 391.79 224.025 391.319 224.129 390.86C225.585 384.164 227.042 377.47 228.5 370.776C250.6 366.24 271.244 354.48 286.042 337.4C286.961 336.341 287.857 335.262 288.73 334.163C288.394 332.698 288.058 331.232 287.722 329.767C288.284 329.758 288.834 329.604 289.318 329.319L291.32 328.118C291.134 331.573 290.867 335.02 290.52 338.458C289.671 346.852 288.362 355.192 286.6 363.442C305.418 360.511 324.237 358.372 343.059 356.238C343.3 349.835 343.553 343.395 343.818 336.918C343.868 335.753 343.913 334.591 343.963 333.424L344.322 333.457C344.702 334.14 345.092 334.821 345.481 335.501C346.265 336.873 347.066 338.241 347.883 339.603C352.083 346.626 360.088 351.15 368.248 351.363L369.138 390.86C369.146 391.12 369.152 391.395 369.158 391.664Z" fill="#004894"/>
<path d="M343.988 332.869C343.988 333.054 343.972 333.239 343.966 333.429" stroke="#4A4540" stroke-miterlimit="10"/>
<path d="M344.322 333.457C344.201 333.457 344.084 333.435 343.963 333.424C343.963 333.239 343.98 333.054 343.986 332.864L344.322 333.457Z" stroke="#4A4540" stroke-miterlimit="10"/>
<path d="M427.017 225.503L415.159 218.4L411.177 216.017L377.297 275.937C373.568 260.391 365.647 245.4 353.576 235.152C346.257 228.942 338.243 225.128 329.557 223.3C323.999 222.171 318.319 221.762 312.657 222.085C313.665 223.783 314.673 225.483 315.681 227.183C314.525 228.218 313.276 229.144 311.951 229.95C307.504 232.607 302.428 234.027 297.248 234.066C292.773 234.146 288.336 233.226 284.262 231.372C283.461 230.999 282.681 230.592 281.921 230.151C280.139 229.117 278.489 227.87 277.007 226.439C277.469 225.722 277.934 225.005 278.455 224.288C271.266 224.54 264.112 225.391 257.065 226.833C247.961 228.71 239.04 231.389 230.409 234.841C226.118 236.544 222.252 239.166 219.084 242.524C215.916 245.882 213.522 249.893 212.072 254.276C202.379 283.493 192.684 312.713 182.989 341.936C178.433 355.656 189.843 372.176 204.294 372.736C212.41 373.054 220.534 372.385 228.489 370.742C250.6 366.24 271.245 354.48 286.043 337.422C286.961 336.364 287.857 335.285 288.731 334.186C288.395 332.72 288.059 331.255 287.723 329.789C286.969 326.491 286.222 323.193 285.505 319.891C285.438 319.455 285.368 319.018 285.301 318.581C285.211 317.705 285.11 316.853 285.021 316.002C285.037 315.966 285.057 315.935 285.074 315.901H285.007C279.059 315.157 273.081 314.417 267.087 313.941C259.347 313.337 251.603 313.185 243.922 314.051C243.785 314.263 243.642 314.476 243.505 314.689C243.614 314.479 243.723 314.272 243.83 314.062C242.875 314.171 241.92 314.294 240.968 314.437C227.945 316.366 214.953 321.871 206.503 328.843C205.443 329.754 204.408 330.699 203.398 331.677C204.381 330.677 205.418 329.731 206.503 328.843C217.353 319.505 230.947 313.547 245.112 311.379C254.697 289.819 250.474 262.623 235.746 245.019C253.257 261.539 257.287 290.38 245.583 311.304C252.538 310.271 259.602 310.177 266.583 311.024C272.898 311.784 279.086 313.371 284.987 315.745L285.127 315.801C286.642 312.988 288.842 310.603 291.525 308.868C291.182 298.543 290.097 288.256 288.277 278.087L319.738 272.317L337.767 269.01L346.954 267.33C346.567 275.588 346.183 283.841 345.8 292.088C345.17 305.76 344.557 319.385 343.991 332.878C344.101 333.077 344.213 333.267 344.325 333.466C344.705 334.149 345.095 334.829 345.484 335.51C346.268 336.882 347.069 338.249 347.886 339.612C352.086 346.634 360.091 351.159 368.251 351.372C369.196 351.395 370.143 351.36 371.084 351.266C380.167 350.347 388.444 343.834 391.488 335.221L429.585 227.052C428.725 226.52 427.874 226.013 427.017 225.503ZM365.319 296.691C362.273 303.819 360.595 311.447 358.509 317.539C356.997 301.985 365.532 285.919 379.263 278.457C372.887 282.873 368.36 289.559 365.319 296.691Z" fill="#336DA9"/>
<path d="M372.022 265.75H262.822V364.87H372.022V265.75Z" fill="#FEBE3D"/>
<path d="M289.461 265.75H262.822V364.87H289.461V265.75Z" fill="#F8A23A"/>
<path d="M368.769 274.254H346.461V283.424H368.769V274.254Z" fill="white"/>
<path d="M369.127 288.246H346.819V297.416H369.127V288.246Z" fill="white"/>
<path d="M285.124 315.784C285.104 315.817 285.088 315.851 285.071 315.885H285.004C279.056 315.14 273.078 314.401 267.084 313.925C259.344 313.32 251.6 313.169 243.919 314.034C244.507 313.135 245.056 312.222 245.58 311.29C252.536 310.257 259.599 310.163 266.58 311.01C272.895 311.769 279.083 313.357 284.984 315.731L285.124 315.784Z" fill="#E46B15"/>
<path d="M443.142 216.846C437.476 219.152 432.07 222.053 427.017 225.501L415.159 218.4C415.392 210.806 416.98 203.315 419.849 196.28C420.485 194.726 423.229 194.866 423.699 196.482C424.832 200.401 425.119 204.517 424.539 208.555C428.773 202.662 433.008 196.77 437.245 190.879C437.622 190.359 438.163 189.981 438.781 189.807C439.399 189.634 440.058 189.674 440.65 189.922C441.242 190.171 441.733 190.612 442.043 191.174C442.352 191.737 442.463 192.388 442.355 193.021C441.863 195.877 442.893 198.761 444.066 201.421C445.239 204.081 446.586 206.721 446.833 209.608C447.079 212.495 445.825 215.757 443.142 216.846Z" fill="#FFCBBD"/>
<path d="M223.821 390.852H224.129C224.025 391.322 223.924 391.793 223.821 392.252V390.852Z" stroke="#4A4540" stroke-miterlimit="10"/>
<path d="M369.158 390.852V391.667C369.158 391.387 369.158 391.124 369.138 390.852H369.158Z" stroke="#4A4540" stroke-miterlimit="10"/>
<path d="M314.695 189.641C315.518 189.641 316.187 191.094 316.187 192.889C316.187 194.684 315.518 196.137 314.695 196.137C313.872 196.137 313.202 194.684 313.202 192.889C313.202 191.094 313.88 189.641 314.695 189.641Z" fill="#1A1A35"/>
<path d="M306.936 190.014C307.877 190.014 308.641 191.467 308.641 193.262C308.641 195.056 307.877 196.51 306.936 196.51C305.995 196.51 305.231 195.056 305.231 193.262C305.231 191.467 305.995 190.014 306.936 190.014Z" fill="#1A1A35"/>
<path d="M312.396 186.46C312.648 185.413 313.796 184.735 314.88 184.845C315.963 184.954 316.882 185.718 317.4 186.659C317.884 187.628 318.124 188.701 318.097 189.784C317.145 187.373 314.415 185.799 312.396 186.46Z" fill="#1A1A35"/>
<path d="M306.074 184.814C304.892 184.686 303.697 184.838 302.585 185.257C301.473 185.676 300.475 186.349 299.67 187.224C298.866 188.099 298.278 189.15 297.954 190.294C297.63 191.437 297.579 192.641 297.805 193.807C299.012 189.579 302.445 186.054 306.074 184.814Z" fill="#1A1A35"/>
<path d="M311.259 192.34C311.31 194.45 311.361 196.559 311.413 198.668C311.66 197.918 312.108 197.249 312.71 196.736C313.334 196.26 314.236 196.078 314.919 196.456C315.602 196.834 315.885 197.879 315.361 198.464L312.587 201.564L314.421 198.257C314.517 198.071 314.547 197.858 314.504 197.654C314.462 197.449 314.35 197.265 314.187 197.133C314.025 197.002 313.822 196.93 313.613 196.931C313.404 196.931 313.202 197.004 313.04 197.137L310.445 199.349C310.688 197.201 310.935 195.056 311.259 192.34Z" fill="#EA5C46"/>
<path d="M302.68 202.132C304.402 203.236 306.349 203.94 308.378 204.195C310.408 204.449 312.468 204.247 314.409 203.602C313.633 204.321 312.698 204.848 311.681 205.139C310.663 205.431 309.591 205.48 308.552 205.282C306.494 204.859 304.665 203.395 302.68 202.132Z" fill="#EA5C46"/>
<path d="M302.635 329.12C297.247 328.555 291.813 328.586 286.432 329.213L280.703 318.36C284.352 312.323 288.99 306.943 294.423 302.445C295.618 301.456 297.634 302.75 297.248 304.262C296.305 307.94 294.639 311.394 292.345 314.42L310.103 305.544C310.609 305.293 311.185 305.225 311.736 305.349C312.287 305.473 312.778 305.784 313.127 306.227C313.449 306.714 313.61 307.29 313.586 307.873C313.562 308.456 313.354 309.017 312.992 309.475C311.312 311.581 310.752 314.361 310.433 317.016C310.114 319.67 309.918 322.403 308.753 324.856C307.588 327.309 305.169 329.386 302.635 329.12Z" fill="#FFCBBD"/>
<path d="M255.92 313.664L284.578 312.88C283.282 315.795 284.987 319.082 286.429 321.93C287.871 324.778 288.977 328.532 286.84 330.89L261.677 358.767C259 361.735 253.173 360.36 252.101 356.51C250.001 348.967 247.881 341.278 248.156 333.455C248.43 325.632 251.471 317.52 255.92 313.664Z" fill="#004894"/>
<path d="M154.958 271.281C187.174 271.281 213.29 245.164 213.29 212.948C213.29 180.732 187.174 154.616 154.958 154.616C122.742 154.616 96.6252 180.732 96.6252 212.948C96.6252 245.164 122.742 271.281 154.958 271.281Z" fill="#CCDEFF"/>
<path d="M154.958 262.855C182.521 262.855 204.865 240.511 204.865 212.948C204.865 185.385 182.521 163.041 154.958 163.041C127.395 163.041 105.051 185.385 105.051 212.948C105.051 240.511 127.395 262.855 154.958 262.855Z" fill="#E2EEFC"/>
<path d="M154.958 218.268C157.896 218.268 160.278 215.887 160.278 212.948C160.278 210.01 157.896 207.628 154.958 207.628C152.02 207.628 149.638 210.01 149.638 212.948C149.638 215.887 152.02 218.268 154.958 218.268Z" fill="#CCDEFF"/>
<path d="M153.799 204.859V171.819C153.799 171.448 153.946 171.092 154.209 170.829C154.471 170.566 154.827 170.419 155.199 170.419C155.57 170.419 155.926 170.566 156.189 170.829C156.451 171.092 156.599 171.448 156.599 171.819V204.859C156.599 205.23 156.451 205.586 156.189 205.849C155.926 206.111 155.57 206.259 155.199 206.259C154.827 206.259 154.471 206.111 154.209 205.849C153.946 205.586 153.799 205.23 153.799 204.859Z" fill="#CCDEFF"/>
<path d="M146.798 214.348H113.758C113.387 214.348 113.031 214.201 112.768 213.938C112.506 213.676 112.358 213.32 112.358 212.948C112.358 212.577 112.506 212.221 112.768 211.958C113.031 211.696 113.387 211.548 113.758 211.548H146.798C147.17 211.548 147.526 211.696 147.788 211.958C148.051 212.221 148.198 212.577 148.198 212.948C148.198 213.32 148.051 213.676 147.788 213.938C147.526 214.201 147.17 214.348 146.798 214.348Z" fill="#CCDEFF"/>
<path d="M319.393 180.734L306.838 182.196L294.49 183.632L292.093 183.912L274.033 186.015L273.835 186.038C273.795 185.788 273.762 185.536 273.731 185.287C273.479 183.138 273.588 180.961 274.053 178.847C275.979 170.013 283.895 162.854 294.087 161.666C304.43 160.462 313.9 165.785 317.697 174.146C318.538 175.998 319.086 177.969 319.321 179.99C319.351 180.23 319.374 180.482 319.393 180.734Z" fill="#004894"/>
<path d="M342.846 178.236C342.805 179.19 342.437 180.1 341.804 180.814C341.17 181.528 340.31 182.002 339.368 182.156C335.29 182.716 331.195 183.164 327.085 183.498C323.936 183.755 320.781 183.952 317.621 184.088C309.91 184.427 302.168 184.413 294.428 184.088C293.619 184.055 292.807 184.018 291.998 183.976L292.093 183.915C292.95 183.355 293.821 182.826 294.703 182.319C296.467 181.288 298.276 180.348 300.129 179.496C309.567 175.145 319.88 173.025 330.268 173.3C331.344 173.328 332.417 173.383 333.488 173.465C333.715 173.485 333.945 173.502 334.172 173.524C335.958 173.677 337.731 173.906 339.492 174.21C340.428 174.393 341.273 174.894 341.884 175.627C342.495 176.361 342.835 177.282 342.846 178.236Z" fill="#E46B15"/>
<path d="M329.104 327.964L335.059 344.831C342.558 333.564 355.046 325.074 369.138 321.672L329.051 357.512C329.129 347.934 329.205 338.355 329.104 327.964Z" fill="#004894"/>
</svg>
