<svg width="512" height="512" viewBox="0 0 512 512" fill="none" xmlns="http://www.w3.org/2000/svg">
<path d="M66.1481 429.673C66.1481 429.673 -10.9924 339.523 98.6959 310.559C208.384 281.595 237.287 256.812 289.142 181.76C340.997 106.709 564.109 126.782 473.354 433.152L66.1481 429.673Z" fill="#E2EEFC"/>
<path d="M85.8675 257.942C162.111 259.783 237.896 217.847 276.854 152.26C284.376 139.595 281.382 121.686 270.149 112.16C258.917 102.634 240.765 102.61 229.509 112.109C210.874 127.829 186.164 134.025 162.19 138.392C138.216 142.758 113.476 145.93 91.7959 157.074C70.1155 168.219 51.6653 189.579 52.0046 213.962C52.3439 238.344 77.5341 257.741 85.8675 257.942Z" fill="#E2EEFC"/>
<path d="M466.02 325.768H382.052V426.502H466.02V325.768Z" fill="#CCDEFF"/>
<path d="M408.056 331.042H387.32V334.882H408.056V331.042Z" fill="#E2EEFC"/>
<path d="M433.144 331.042H412.408V334.882H433.144V331.042Z" fill="#E2EEFC"/>
<path d="M457.72 331.042H436.984V334.882H457.72V331.042Z" fill="#E2EEFC"/>
<path d="M408.313 337.954H387.577V341.794H408.313V337.954Z" fill="#E2EEFC"/>
<path d="M433.401 337.954H412.665V341.794H433.401V337.954Z" fill="#E2EEFC"/>
<path d="M457.976 337.954H437.24V341.794H457.976V337.954Z" fill="#E2EEFC"/>
<path d="M408.313 344.865H387.577V348.705H408.313V344.865Z" fill="#E2EEFC"/>
<path d="M433.401 344.865H412.665V348.705H433.401V344.865Z" fill="#E2EEFC"/>
<path d="M457.976 344.865H437.24V348.705H457.976V344.865Z" fill="#E2EEFC"/>
<path d="M408.569 351.777H387.833V355.617H408.569V351.777Z" fill="#E2EEFC"/>
<path d="M433.656 351.777H412.92V355.617H433.656V351.777Z" fill="#E2EEFC"/>
<path d="M458.233 351.777H437.497V355.617H458.233V351.777Z" fill="#E2EEFC"/>
<path d="M408.824 358.689H388.088V362.529H408.824V358.689Z" fill="#E2EEFC"/>
<path d="M433.912 358.689H413.176V362.529H433.912V358.689Z" fill="#E2EEFC"/>
<path d="M458.488 358.689H437.752V362.529H458.488V358.689Z" fill="#E2EEFC"/>
<path d="M408.824 365.602H388.088V369.442H408.824V365.602Z" fill="#E2EEFC"/>
<path d="M433.912 365.602H413.176V369.442H433.912V365.602Z" fill="#E2EEFC"/>
<path d="M458.488 365.602H437.752V369.442H458.488V365.602Z" fill="#E2EEFC"/>
<path d="M458.488 376.136H388.088V401.736H458.488V376.136Z" fill="#E2EEFC"/>
<path d="M467.902 303.073H441.79V426.504H467.902V303.073Z" fill="#CCDEFF"/>
<path d="M473.114 314.373H465.434V426.501H473.114V314.373Z" fill="#CCDEFF"/>
<path d="M128.333 361.736H87.8848V426.76H128.333V361.736Z" fill="#CCDEFF"/>
<path d="M122.207 368.159H92.127V374.047H122.207V368.159Z" fill="#E2EEFC"/>
<path d="M122.207 377.992H92.127V383.88H122.207V377.992Z" fill="#E2EEFC"/>
<path d="M122.222 387.825H92.1421V393.713H122.222V387.825Z" fill="#E2EEFC"/>
<path d="M122.222 397.46H92.1421V403.348H122.222V397.46Z" fill="#E2EEFC"/>
<path d="M157.799 341H117.351V426.76H157.799V341Z" fill="#CCDEFF"/>
<path d="M244.355 357.896H153.958V426.76H244.355V357.896Z" fill="#CCDEFF"/>
<path d="M87.8849 388.616H65.3569V426.76H87.8849V388.616Z" fill="#CCDEFF"/>
<path d="M169.738 325.604H168.97V357.896H169.738V325.604Z" fill="#CCDEFF"/>
<path d="M178.36 333.038H177.592V357.896H178.36V333.038Z" fill="#CCDEFF"/>
<path d="M162.931 320.451H161.139V357.896H162.931V320.451Z" fill="#CCDEFF"/>
<path d="M100.06 352.415H92.6362V361.736H100.06V352.415Z" fill="#CCDEFF"/>
<path d="M136.553 330.929H120.425V341H136.553V330.929Z" fill="#CCDEFF"/>
<path d="M150.659 320.451H143.747V341H150.659V320.451Z" fill="#CCDEFF"/>
<path d="M110.254 339.175H104.11V361.739H110.254V339.175Z" fill="#CCDEFF"/>
<path d="M74.1889 392.328H68.1729V398.344H74.1889V392.328Z" fill="#E2EEFC"/>
<path d="M84.0448 392.328H78.0288V398.344H84.0448V392.328Z" fill="#E2EEFC"/>
<path d="M74.1889 402.44H68.1729V408.456H74.1889V402.44Z" fill="#E2EEFC"/>
<path d="M84.0448 402.44H78.0288V408.456H84.0448V402.44Z" fill="#E2EEFC"/>
<path d="M74.1889 412.552H68.1729V418.568H74.1889V412.552Z" fill="#E2EEFC"/>
<path d="M84.0448 412.552H78.0288V418.568H84.0448V412.552Z" fill="#E2EEFC"/>
<path d="M124.526 346.45H122.222V424.018H124.526V346.45Z" fill="#E2EEFC"/>
<path d="M134.766 346.45H132.462V424.018H134.766V346.45Z" fill="#E2EEFC"/>
<path d="M143.985 346.45H141.681V424.018H143.985V346.45Z" fill="#E2EEFC"/>
<path d="M153.713 346.45H151.409V424.018H153.713V346.45Z" fill="#E2EEFC"/>
<path d="M382.052 395.154H340.58V426.722H382.052V395.154Z" fill="#CCDEFF"/>
<path d="M420.974 418.755H419.438V420.291H420.974V418.755Z" fill="#CCDEFF"/>
<path d="M213.077 206.521C203.228 219.019 190.518 228.966 176.018 235.52C177.019 238.723 180.485 240.676 183.839 240.827C187.192 240.978 190.436 239.678 193.429 238.157C196.421 236.636 199.317 234.857 202.547 233.93C205.187 233.149 207.611 231.771 209.633 229.904C211.655 228.036 213.222 225.729 214.211 223.161C216.138 218.025 215.496 211.991 213.077 206.521Z" fill="#336DA9"/>
<path d="M229.422 185.127C227.551 187.287 228.598 191.898 231.242 192.021C227.387 191.765 221.071 194.45 217.541 196.933C218.155 196.432 218.608 195.76 218.842 195.002C219.077 194.245 219.083 193.435 218.86 192.674C218.771 192.363 218.636 192.067 218.46 191.795C217.973 191.071 217.249 190.538 216.412 190.288C215.475 189.988 214.461 190.044 213.563 190.446C214.654 189.844 215.694 189.154 216.673 188.383C219.014 186.545 220.992 184.288 222.508 181.727C223.532 181.215 224.632 180.78 225.782 180.703C226.104 180.685 226.428 180.701 226.747 180.749C227.573 180.855 228.336 181.249 228.903 181.86C229.66 182.731 230.119 184.32 229.422 185.127Z" fill="#FBB8A5"/>
<path d="M192.392 424.095L162.03 420.155C162.21 418.546 162.502 416.952 162.903 415.383C164.736 414.89 166.554 414.34 168.356 413.732C168.424 414.397 168.642 415.037 168.993 415.606C169.559 416.451 170.76 416.963 171.625 416.435C171.495 415.194 171.369 413.957 171.239 412.713C171.612 412.577 171.978 412.437 172.352 412.291C172.352 412.483 172.352 412.675 172.352 412.864C172.321 413.568 172.263 414.285 172.449 414.966C172.636 415.647 173.133 416.289 173.827 416.428C174.521 416.566 175.322 415.975 175.222 415.278C175.041 413.974 174.857 412.67 174.669 411.366C175.056 411.208 175.437 411.044 175.816 410.88C176.031 412.471 176.244 414.063 176.456 415.657C177.252 416.169 178.368 415.442 178.619 414.531C178.754 413.915 178.721 413.275 178.522 412.677C178.44 412.367 178.335 412.06 178.238 411.761C178.225 411.717 178.207 411.671 178.194 411.628C178.002 411.091 177.888 410.53 177.856 409.961C178.189 409.81 178.519 409.654 178.847 409.495C178.908 409.585 178.975 409.672 179.041 409.751C180.548 411.736 182.667 413.169 185.07 413.829C187.473 414.489 190.026 414.339 192.336 413.402C192.645 413.274 192.953 413.146 193.247 412.982C192.976 416.584 192.712 420.186 192.392 424.095Z" fill="#E46B15"/>
<path d="M192.195 426.409C182.085 424.873 171.971 423.36 161.795 422.032C161.869 421.405 161.949 420.775 162.03 420.155C172.153 421.471 182.273 422.784 192.392 424.095C192.329 424.853 192.263 425.624 192.195 426.409Z" fill="black"/>
<path d="M176.446 415.654C176.232 414.062 176.019 412.47 175.806 410.878C176.487 410.578 177.168 410.273 177.854 409.958C177.886 410.527 178 411.089 178.192 411.625C178.192 411.669 178.222 411.715 178.235 411.758C178.332 412.058 178.437 412.365 178.519 412.675C178.718 413.272 178.752 413.913 178.617 414.528C178.358 415.439 177.244 416.169 176.446 415.654Z" fill="white"/>
<path d="M173.824 416.425C173.13 416.289 172.636 415.642 172.447 414.963C172.257 414.285 172.319 413.565 172.349 412.861C172.349 412.672 172.349 412.48 172.349 412.288C173.117 411.994 173.885 411.681 174.653 411.361C174.841 412.664 175.025 413.967 175.206 415.273C175.311 415.972 174.508 416.558 173.824 416.425Z" fill="white"/>
<path d="M171.625 416.435C170.76 416.965 169.559 416.451 168.993 415.606C168.641 415.038 168.423 414.397 168.356 413.732C169.32 413.409 170.281 413.068 171.239 412.708C171.367 413.954 171.495 415.196 171.625 416.435Z" fill="white"/>
<path d="M192.325 413.404C190.016 414.341 187.463 414.492 185.06 413.832C182.657 413.172 180.538 411.739 179.031 409.754C180.256 406.761 180.907 403.564 180.949 400.331C185.774 401.654 190.597 402.972 195.246 404.212C194.277 407.273 193.303 410.338 192.325 413.404Z" fill="#FBB8A5"/>
<path d="M226.389 181.187C228.373 182.129 229.304 184.812 228.329 186.78C228.928 186.066 228.086 186.972 228.475 187.804C229.499 184.963 232.691 181.404 233.713 178.558C234.279 176.985 234.333 175.273 233.866 173.668C233.399 172.063 232.436 170.647 231.114 169.623C229.793 168.6 228.181 168.021 226.51 167.97C224.839 167.92 223.195 168.4 221.814 169.342C219.075 171.208 211.628 168.394 212.554 171.574C212.839 172.549 217.28 180.337 218.296 180.352C219.313 180.367 223.16 179.269 224.169 179.405C225.178 179.541 226.232 180.334 226.389 181.187Z" fill="#38385C"/>
<path d="M223.782 183.296C223.093 186.84 221.382 190.104 218.86 192.686C218.77 192.376 218.636 192.08 218.46 191.808C217.973 191.084 217.249 190.551 216.412 190.301C215.486 190.586 214.537 190.792 213.576 190.918C213.53 190.787 213.481 190.662 213.435 190.528C213.391 190.406 213.345 190.272 213.302 190.162C214.454 189.607 215.583 189.015 216.676 188.401C218.885 187.169 221.015 185.801 223.055 184.305C223.255 184.159 223.447 184.016 223.636 183.87C223.677 183.662 223.744 183.473 223.782 183.296Z" fill="#F8856C"/>
<path d="M226.77 180.721L226.742 180.754C225.877 181.778 224.72 182.485 223.529 183.079C223.432 183.409 223.235 183.831 223.045 184.287C222.844 184.74 222.699 185.215 222.613 185.703C221.753 188.071 220.145 188.7 217.854 189.714C217.291 189.97 216.83 190.142 216.405 190.288C215.478 190.573 214.53 190.779 213.568 190.905C212.946 190.999 212.204 191.115 211.264 191.276C208.044 185.344 207.524 177.475 210.888 171.415C212.168 169.111 216.008 168.049 219.185 168.732C217.14 170.023 214.908 170.988 212.567 171.595C213.584 171.619 214.58 171.883 215.476 172.365C216.371 172.848 217.139 173.535 217.719 174.37C218.298 175.206 218.672 176.167 218.81 177.174C218.948 178.182 218.845 179.207 218.512 180.168C218.983 179.4 221.305 179.689 221.975 179.006C222.705 178.266 222.157 178.179 222.516 177.324C222.613 176.3 224 174.193 225.332 174.321C226.663 174.449 227.751 175.665 227.968 176.994C228.186 178.322 227.638 179.694 226.77 180.721Z" fill="#FBB6A6"/>
<path d="M235.111 176.72C231.102 172.57 225.321 170.722 219.659 171.106H219.648L219.164 171.147C212.985 173.722 205.422 172.972 199.867 169.132C203.129 168.94 206.823 168.576 210.519 168.218C211.605 167.45 212.649 166.682 213.699 165.914C214.082 163.906 214.865 161.996 216.003 160.297C222.626 158.395 230.272 160.784 234.635 166.116C235.469 169.588 235.631 173.187 235.111 176.72Z" fill="#004894"/>
<path d="M219.648 171.108L219.164 171.149C212.985 173.724 205.422 172.974 199.867 169.134C203.129 168.942 206.823 168.579 210.519 168.22C213.346 171.379 215.785 171.264 219.648 171.108Z" fill="#E46B15"/>
<path d="M180.521 252.703H186.199C186.199 252.703 187.351 253.563 185.091 253.563C183.839 253.58 182.589 253.453 181.366 253.184L180.521 252.703Z" fill="#F8856C"/>
<path d="M211.272 179.188C211.698 179.188 212.043 178.314 212.043 177.237C212.043 176.159 211.698 175.286 211.272 175.286C210.846 175.286 210.501 176.159 210.501 177.237C210.501 178.314 210.846 179.188 211.272 179.188Z" fill="#38385C"/>
<path d="M210.189 184.515C211.489 184.446 212.755 184.073 213.886 183.428C215.016 182.782 215.98 181.88 216.699 180.795C216.752 181.599 216.576 182.402 216.191 183.11C215.806 183.818 215.227 184.402 214.523 184.794C213.107 185.554 211.249 185.388 210.189 184.515Z" fill="#FEFEFE"/>
<path d="M211.18 173.868C211.59 173.581 212.069 173.409 212.567 173.369C213.066 173.329 213.566 173.422 214.017 173.64C214.467 173.857 214.852 174.191 215.131 174.606C215.409 175.021 215.573 175.503 215.603 176.003C214.432 174.784 212.862 174.027 211.18 173.868Z" fill="#38385C"/>
<path d="M224.335 176.443C224.422 176.237 224.566 176.061 224.75 175.935C224.934 175.809 225.15 175.738 225.373 175.732C225.596 175.725 225.816 175.783 226.007 175.898C226.198 176.014 226.352 176.181 226.45 176.381C226.631 176.751 226.735 177.154 226.756 177.565C226.776 177.976 226.713 178.387 226.569 178.773C226.425 179.159 226.204 179.511 225.92 179.808C225.635 180.106 225.293 180.342 224.914 180.503C225.4 180.076 225.791 179.553 226.063 178.967C226.197 178.673 226.263 178.353 226.257 178.03C226.251 177.707 226.172 177.39 226.028 177.101C225.866 176.811 225.609 176.587 225.3 176.467C224.991 176.347 224.65 176.338 224.335 176.443Z" fill="#F8856C"/>
<path d="M199.253 206.521H117.351V252.713H199.253V206.521Z" fill="#FEBE3D"/>
<path d="M199.253 249.569H117.351V252.716H199.253V249.569Z" fill="#EC7F37"/>
<path d="M199.252 250.419V206.521L203.185 208.65V250.419H199.252Z" fill="#EC7F37"/>
<path d="M193.424 245.786C189.339 245.891 185.426 247.454 182.393 250.191C183.161 250.944 184.425 251.013 185.444 250.65C186.463 250.286 187.31 249.559 188.13 248.858C188.054 249.72 187.755 250.547 187.261 251.257C186.767 251.968 186.095 252.537 185.314 252.908C183.752 253.632 182.114 253.24 180.411 252.721C182.126 254.167 184.397 254.525 186.637 254.666C188.877 254.807 191.115 254.467 193.334 254.131C193.378 251.267 193.411 248.412 193.424 245.786Z" fill="#FBB8A5"/>
<path d="M243.771 267.282C234.462 268.78 225.038 269.449 215.611 269.281C211.824 269.22 208.042 269.019 204.265 268.68C204.777 261.662 205.289 254.645 205.801 247.629C218.145 246.51 228.841 235.551 229.665 223.183C230.177 215.465 235.323 211.092 242.977 208.591C242.977 209.139 242.977 209.684 242.995 210.225C243.2 230.054 243.556 247.634 243.771 267.282Z" fill="#004894"/>
<path d="M256.202 264.773C252.096 265.775 247.952 266.611 243.771 267.282C234.462 268.78 225.038 269.449 215.611 269.281C221.419 248.466 230.474 228.513 243.003 210.235C244.037 208.721 245.096 207.22 246.18 205.732C252.249 224.851 255.622 244.723 256.202 264.773Z" fill="#004894"/>
<path d="M213.153 201.529C207.886 215.41 205.702 230.272 206.753 245.082C221.256 235.331 230.712 218.437 231.424 200.96C231.537 198.254 229.238 195.84 226.596 195.234C223.954 194.627 221.151 195.551 218.916 197.1C216.681 198.649 214.963 200.776 213.153 201.529Z" fill="#004894"/>
<path d="M230.303 192.057C232.435 191.394 244.035 200.023 245.919 204.921C241.746 204.982 232.461 204.946 228.785 206.917C230.346 202.422 227.917 196.933 223.542 195.052C225.977 193.925 228.403 192.796 230.303 192.057Z" fill="#336DA9"/>
<path d="M192.167 245.363C199.474 244.473 206.503 242.009 212.767 238.142C216.095 236.076 218.225 232.466 219.423 228.726C220.621 224.986 221 221.046 221.66 217.178C222.321 213.31 223.301 209.393 225.5 206.149C227.699 202.906 231.468 201.434 235.285 200.517C240.361 199.294 247.977 204.726 246.981 208.351C239.667 235.008 239.529 235.487 232.868 245.85C232.028 247.155 230.631 247.857 229.189 248.435C206.06 257.71 198.026 255.621 197.189 255.347C196.191 252.455 193.375 247.934 192.167 245.363Z" fill="#336DA9"/>
<path d="M190.438 245.858C191.762 249.216 192.504 252.77 193.825 256.134C193.636 256.2 194.025 256.07 193.825 256.134L197.888 256L194.862 246.659C194.719 246.243 194.462 245.875 194.12 245.598C193.778 245.321 193.366 245.145 192.929 245.09C192.046 244.992 191.127 245.438 190.438 245.858Z" fill="#004894"/>
<path d="M230.587 189.164L211.812 198.085C211.889 200.085 211.965 202.084 212.04 204.081L232.1 192.236C231.565 191.232 231.03 190.208 230.587 189.164Z" fill="#463E52"/>
<path d="M213.43 190.513C213.473 190.487 213.514 190.469 213.558 190.446C213.517 190.473 213.475 190.496 213.43 190.515C213.343 190.569 213.258 190.613 213.174 190.661C213.256 190.606 213.341 190.557 213.43 190.513Z" fill="#FFA8A8"/>
<path d="M211.062 274.473L164.288 402.143L201.132 405.507L227.241 354.087L244.542 275.914L211.062 274.473Z" fill="#1A1A35"/>
<path d="M239.312 406.272L290 181.151C290.413 179.315 291.424 177.669 292.874 176.472C294.325 175.274 296.132 174.592 298.012 174.533L406.556 171.139C407.844 171.095 409.124 171.346 410.3 171.872C411.476 172.398 412.516 173.185 413.342 174.174C414.168 175.162 414.757 176.326 415.065 177.577C415.373 178.828 415.392 180.132 415.12 181.391L413.996 186.665L366.428 409.6C366.024 411.496 364.982 413.196 363.477 414.418C361.971 415.64 360.093 416.309 358.154 416.315L247.614 416.635C245.6 416.639 243.65 415.928 242.111 414.629C240.573 413.33 239.545 411.527 239.212 409.541C239.035 408.455 239.069 407.345 239.312 406.272ZM368.054 174.73L335.836 175.637C335.434 175.651 335.053 175.823 334.777 176.116C334.5 176.409 334.349 176.798 334.357 177.201C334.357 177.221 334.357 177.242 334.357 177.262C334.386 177.654 334.565 178.02 334.856 178.284C335.147 178.549 335.528 178.691 335.921 178.683L368.138 177.777C368.355 177.798 368.574 177.773 368.781 177.703C368.987 177.633 369.177 177.52 369.336 177.371C369.495 177.222 369.621 177.041 369.705 176.84C369.789 176.639 369.83 176.422 369.823 176.204C369.817 175.986 369.765 175.772 369.669 175.576C369.574 175.38 369.438 175.207 369.27 175.067C369.103 174.928 368.907 174.826 368.697 174.767C368.487 174.709 368.267 174.697 368.051 174.73H368.054ZM254.72 402.194L355.106 401.902C356.866 401.897 358.572 401.289 359.939 400.18C361.306 399.07 362.252 397.526 362.619 395.804L406.83 188.575C407.225 186.725 406.926 184.795 405.99 183.152C405.055 181.508 403.548 180.266 401.756 179.661C400.887 179.368 399.972 179.235 399.056 179.267L300.496 182.339C298.788 182.392 297.147 183.012 295.83 184.1C294.513 185.188 293.595 186.683 293.22 188.349L285.614 222.141L285.568 222.339L247.173 392.796C246.919 393.926 246.923 395.099 247.184 396.227C247.445 397.355 247.958 398.41 248.683 399.313C249.408 400.216 250.327 400.944 251.373 401.443C252.418 401.942 253.562 402.198 254.72 402.194Z" fill="#38385C"/>
<path d="M241.006 423.076C241.163 423.305 241.339 423.52 241.534 423.719C242.369 424.804 243.446 425.681 244.678 426.278C245.911 426.876 247.265 427.178 248.635 427.162L363.579 426.604C367.732 426.583 371.321 423.757 372.196 419.812L421.727 196.762L423.322 189.573C423.453 188.985 423.521 188.384 423.524 187.781C422.961 185.915 420.677 182.794 418.443 180.037C415.99 177.011 413.596 174.426 413.596 174.426L413.573 174.505C414.314 175.475 414.834 176.594 415.1 177.785C415.365 178.975 415.368 180.21 415.109 181.402L413.986 186.675L366.428 409.6C366.024 411.496 364.982 413.196 363.477 414.418C361.971 415.64 360.093 416.309 358.155 416.315L247.614 416.635C245.6 416.639 243.65 415.928 242.112 414.629C240.573 413.33 239.545 411.527 239.212 409.541C239.212 409.541 238.569 419.584 241.006 423.076Z" fill="#1A1A35"/>
<path d="M254.72 402.194L355.106 401.902C356.866 401.897 358.572 401.289 359.939 400.18C361.306 399.07 362.252 397.526 362.619 395.804L406.83 188.575C407.225 186.725 406.926 184.796 405.991 183.152C405.055 181.509 403.548 180.266 401.757 179.661C400.887 179.368 399.972 179.235 399.056 179.267L300.496 182.339C298.788 182.393 297.147 183.012 295.83 184.1C294.513 185.188 293.595 186.683 293.22 188.35L285.614 222.142L285.568 222.339L247.173 392.796C246.919 393.926 246.923 395.099 247.184 396.227C247.445 397.356 247.958 398.41 248.683 399.313C249.408 400.216 250.327 400.944 251.373 401.443C252.418 401.942 253.562 402.199 254.72 402.194Z" fill="#E2EEFC"/>
<g opacity="0.64">
<path d="M357.056 180.58L399.217 224.238L401.216 214.858L367.79 180.242L357.056 180.58Z" fill="white"/>
<path d="M322.476 181.66L392.771 254.457L397.816 230.802L349.545 180.813L322.476 181.66Z" fill="white"/>
<path d="M272.507 280.269L366.497 377.605L373.335 345.552L279.652 248.533L272.507 280.269Z" fill="white"/>
<path d="M266.378 307.497L357.238 401.593C358.573 401.203 359.778 400.46 360.725 399.44C361.671 398.421 362.324 397.165 362.614 395.804L362.632 395.723L268.467 298.207L266.378 307.497Z" fill="white"/>
<path d="M258.389 342.986L315.392 402.02L353.078 401.91L265.534 311.248L258.389 342.986Z" fill="white"/>
<path d="M322.476 181.66L392.771 254.457L397.816 230.802L349.545 180.813L322.476 181.66Z" fill="white"/>
<path d="M357.056 180.58L399.217 224.238L401.216 214.858L367.79 180.242L357.056 180.58Z" fill="white"/>
<path d="M266.378 307.497L357.238 401.593C358.573 401.203 359.778 400.46 360.725 399.44C361.671 398.421 362.324 397.165 362.614 395.804L362.632 395.723L268.467 298.207L266.378 307.497Z" fill="white"/>
<path d="M258.389 342.986L315.392 402.02L353.078 401.91L265.534 311.248L258.389 342.986Z" fill="white"/>
<path d="M272.507 280.269L366.497 377.605L373.335 345.552L279.652 248.533L272.507 280.269Z" fill="white"/>
</g>
<path d="M334.359 177.27C334.389 177.662 334.567 178.028 334.858 178.292C335.149 178.556 335.53 178.699 335.923 178.691L368.141 177.784C368.358 177.806 368.577 177.78 368.784 177.71C368.99 177.64 369.179 177.527 369.339 177.379C369.498 177.23 369.624 177.049 369.708 176.848C369.792 176.647 369.832 176.43 369.826 176.212C369.82 175.994 369.767 175.78 369.672 175.584C369.576 175.388 369.44 175.214 369.273 175.075C369.105 174.935 368.91 174.833 368.7 174.775C368.489 174.717 368.269 174.704 368.054 174.738L335.836 175.644C335.434 175.659 335.053 175.831 334.777 176.124C334.5 176.416 334.349 176.806 334.357 177.208C334.356 177.229 334.357 177.249 334.359 177.27Z" fill="white"/>
<path d="M296.248 328.996C299.964 338.499 303.682 348.002 307.402 357.507C305.904 358.125 304.364 358.639 302.794 359.043C301.478 357.677 300.122 356.349 298.724 355.057C299.274 354.677 299.731 354.177 300.06 353.595C300.529 352.691 300.401 351.394 299.52 350.889C298.496 351.601 297.472 352.311 296.448 353.019C296.148 352.763 295.849 352.507 295.542 352.251C295.708 352.154 295.88 352.069 296.054 351.995C296.686 351.685 297.334 351.388 297.846 350.899C298.358 350.41 298.678 349.663 298.463 348.99C298.248 348.316 297.347 347.897 296.783 348.322C295.729 349.108 294.675 349.898 293.622 350.69C293.297 350.434 292.972 350.178 292.644 349.922L296.525 347.062C296.594 346.115 295.416 345.488 294.497 345.708C293.893 345.885 293.348 346.223 292.92 346.686C292.69 346.908 292.47 347.146 292.255 347.377C292.221 347.41 292.191 347.446 292.16 347.479C291.782 347.906 291.345 348.276 290.862 348.578C290.57 348.36 290.273 348.145 289.979 347.932C290.028 347.835 290.071 347.735 290.115 347.635C291.13 345.36 291.367 342.813 290.79 340.389C290.212 337.965 288.852 335.799 286.92 334.226C286.664 334.016 286.39 333.814 286.113 333.627C289.385 332.099 292.667 330.599 296.248 328.996Z" fill="#E46B15"/>
<path d="M298.373 328.057C301.901 337.652 305.429 347.257 309.161 356.813C308.575 357.049 307.984 357.284 307.402 357.509C303.685 348.002 299.967 338.498 296.249 328.999C296.945 328.689 297.651 328.374 298.373 328.057Z" fill="black"/>
<path d="M296.52 347.036L292.639 349.896C292.05 349.442 291.453 348.992 290.847 348.552C291.329 348.249 291.766 347.879 292.145 347.453C292.178 347.42 292.209 347.384 292.239 347.351C292.454 347.121 292.675 346.882 292.905 346.66C293.333 346.198 293.878 345.86 294.482 345.682C295.424 345.462 296.589 346.089 296.52 347.036Z" fill="white"/>
<path d="M298.46 348.969C298.673 349.643 298.345 350.388 297.843 350.879C297.342 351.371 296.681 351.665 296.051 351.975C295.882 352.062 295.711 352.146 295.539 352.231C294.91 351.695 294.269 351.169 293.617 350.654C294.669 349.863 295.726 349.072 296.778 348.286C297.344 347.879 298.24 348.301 298.46 348.969Z" fill="white"/>
<path d="M299.52 350.887C300.401 351.399 300.526 352.679 300.06 353.593C299.731 354.175 299.274 354.675 298.724 355.054C297.976 354.372 297.216 353.689 296.443 353.006L299.52 350.887Z" fill="white"/>
<path d="M286.91 334.198C288.842 335.771 290.202 337.937 290.78 340.361C291.357 342.785 291.12 345.332 290.105 347.607C286.891 347.974 283.775 348.941 280.919 350.459C279.757 345.595 278.592 340.731 277.443 336.059L286.91 334.198Z" fill="#FBB8A5"/>
<path d="M220.833 279.127C220.833 279.127 183.081 342.119 208.435 361.178C233.789 380.237 285.98 354.816 285.98 354.816L277.046 331.958C277.046 331.958 233.526 349.366 239.204 328.118C244.882 306.87 252.982 275.612 252.982 275.612L220.833 279.127Z" fill="#38385C"/>
<path d="M256.179 277.899C252.128 278.746 248.022 279.304 243.891 279.568C230.552 282.449 216.721 282.145 203.52 278.682C203.713 276.054 203.907 273.424 204.101 270.792C204.152 270.089 204.204 269.385 204.257 268.68C208.031 269.021 211.813 269.222 215.603 269.282C225.031 269.449 234.454 268.78 243.763 267.282C247.938 266.611 252.082 265.775 256.195 264.773C256.326 269.148 256.321 273.523 256.179 277.899Z" fill="#336DA9"/>
<path d="M209.245 175.652C209.475 177.357 207.709 179.075 205.484 179.323C207.66 180.39 209.152 182.226 209.437 184.187C210.071 181.484 210.176 178.714 209.245 175.652Z" fill="#FBB6A6"/>
<path d="M226.427 180.992C227.429 183.019 228.091 185.197 228.386 187.438L233.012 179.917C230.836 180.293 228.657 180.67 226.427 180.992Z" fill="#38385C"/>
<path d="M210.501 168.266C211.342 164.936 213.411 162.046 216.295 160.179C216.497 162.22 216.253 164.281 215.58 166.218C215.263 167.132 214.206 167.557 213.246 167.685C212.286 167.813 211.269 167.762 210.501 168.266Z" fill="#004894"/>
<path d="M208.712 363.668L192.548 398.228" stroke="#F2F2F2" stroke-linecap="round" stroke-linejoin="round" stroke-dasharray="6 3 6 3 6 3"/>
<path d="M273.992 412.096L273.923 412.237" stroke="#F2F2F2" stroke-linecap="round" stroke-linejoin="round" stroke-dasharray="6 3 6 3 6 3"/>
<path d="M230.513 284.37C225.759 291.705 220.964 299.121 218.017 307.349C215.071 315.577 214.093 324.81 217.08 333.025C220.068 341.241 227.576 348.099 236.28 348.685C253.604 349.852 261.967 350.416 278.095 343.985" stroke="#F2F2F2" stroke-linecap="round" stroke-linejoin="round" stroke-dasharray="6 3 6 3 6 3"/>
<path d="M365.363 132.56L359.004 130.512C361.564 122.924 372.808 120.151 378.588 125.689C375.555 122.059 378.076 115.467 382.758 114.786C387.441 114.105 391.718 119.714 389.852 124.055C393.475 119.88 401.308 120.853 403.797 125.788C406.784 122.087 413.322 122.204 416.179 126.003C429.618 123.491 443.494 124.848 456.192 129.915L342.712 135.424C350.881 133.929 359.055 132.434 365.363 132.56Z" fill="#E2EEFC"/>
<path d="M170.299 92.0526L176.517 89.6155C173.496 82.1915 162.089 80.1435 156.67 86.0315C159.468 82.2171 156.536 75.7915 151.821 75.4152C147.105 75.0389 143.178 80.8962 145.324 85.1176C141.445 81.1778 133.688 82.6447 131.515 87.7263C128.3 84.2191 121.787 84.7439 119.171 88.7195C105.603 87.0572 91.842 89.2838 79.4907 95.14L193.088 93.4888C184.832 92.5083 176.586 91.5304 170.299 92.0526Z" fill="#E2EEFC"/>
<path d="M34.166 434.432C34.166 432.395 34.9752 430.442 36.4154 429.001C37.8557 427.561 39.8092 426.752 41.846 426.752H476.516C478.553 426.752 480.506 427.561 481.947 429.001C483.387 430.442 484.196 432.395 484.196 434.432C484.196 436.469 483.387 438.422 481.947 439.863C480.506 441.303 478.553 442.112 476.516 442.112H41.846C39.8092 442.112 37.8557 441.303 36.4154 439.863C34.9752 438.422 34.166 436.469 34.166 434.432Z" fill="#1A1A35"/>
<path d="M44.8003 148.69C44.8003 134.354 56.1129 122.747 70.0701 122.747C84.0272 122.747 95.3398 134.362 95.3398 148.69C95.3398 163.018 71.1043 189.235 71.1043 189.235C71.1043 189.235 44.8003 163.018 44.8003 148.69Z" fill="#004894"/>
<path d="M70.0723 162.412C77.635 162.412 83.7658 156.281 83.7658 148.718C83.7658 141.156 77.635 135.025 70.0723 135.025C62.5097 135.025 56.3789 141.156 56.3789 148.718C56.3789 156.281 62.5097 162.412 70.0723 162.412Z" fill="white"/>
<path d="M71.104 189.235L132.255 181.983L175.588 117.307L270.441 130.568L296.422 236.304L364.052 253.351L331.379 308.273" stroke="#004894" stroke-width="8" stroke-miterlimit="10"/>
<path d="M329.152 321.859C334.03 321.859 337.984 317.905 337.984 313.027C337.984 308.149 334.03 304.195 329.152 304.195C324.275 304.195 320.32 308.149 320.32 313.027C320.32 317.905 324.275 321.859 329.152 321.859Z" fill="#004894"/>
<path d="M332.762 316.638C334.757 314.643 334.757 311.41 332.762 309.415C330.768 307.421 327.534 307.421 325.54 309.415C323.545 311.41 323.545 314.643 325.54 316.638C327.534 318.632 330.768 318.632 332.762 316.638Z" fill="#F5F9FE"/>
<path d="M28.8206 280.786C27.4357 276.5 30.3925 271.345 34.7931 270.377C39.1937 269.409 44.0398 272.852 44.58 277.322C47.9336 271.209 58.2376 270.948 61.8984 276.884C80.0464 275.177 98.3527 276.562 116.037 280.98L17.1777 282.516C22.0417 281.167 26.9109 279.808 28.8206 280.786Z" fill="#E2EEFC"/>
</svg>
