<svg width="512" height="512" viewBox="0 0 512 512" fill="none" xmlns="http://www.w3.org/2000/svg">
<path d="M54.8375 430.456C54.8375 430.456 -22.303 340.306 87.3854 311.342C197.074 282.378 225.976 257.582 277.831 182.531C329.687 107.479 552.799 127.552 462.047 433.923L54.8375 430.456Z" fill="#E2EEFC"/>
<path d="M85.2636 254.057C157.169 255.792 228.642 216.258 265.383 154.427C272.476 142.487 269.653 125.604 259.059 116.623C248.466 107.643 231.347 107.62 220.731 116.575C203.157 131.394 179.853 137.236 157.243 141.353C134.633 145.469 111.294 148.459 90.847 158.976C70.4002 169.492 53.0076 189.609 53.3276 212.595C53.6476 235.581 77.4044 253.867 85.2636 254.057Z" fill="#E2EEFC"/>
<path d="M454.71 326.554H370.742V427.287H454.71V326.554Z" fill="#CCDEFF"/>
<path d="M396.746 331.825H376.01V335.665H396.746V331.825Z" fill="#E2EEFC"/>
<path d="M421.834 331.825H401.098V335.665H421.834V331.825Z" fill="#E2EEFC"/>
<path d="M446.41 331.825H425.674V335.665H446.41V331.825Z" fill="#E2EEFC"/>
<path d="M397.002 338.737H376.266V342.577H397.002V338.737Z" fill="#E2EEFC"/>
<path d="M422.09 338.737H401.354V342.577H422.09V338.737Z" fill="#E2EEFC"/>
<path d="M446.666 338.737H425.93V342.577H446.666V338.737Z" fill="#E2EEFC"/>
<path d="M397.002 345.648H376.266V349.488H397.002V345.648Z" fill="#E2EEFC"/>
<path d="M422.09 345.648H401.354V349.488H422.09V345.648Z" fill="#E2EEFC"/>
<path d="M446.666 345.648H425.93V349.488H446.666V345.648Z" fill="#E2EEFC"/>
<path d="M397.258 352.561H376.522V356.401H397.258V352.561Z" fill="#E2EEFC"/>
<path d="M422.346 352.561H401.61V356.401H422.346V352.561Z" fill="#E2EEFC"/>
<path d="M446.922 352.561H426.186V356.401H446.922V352.561Z" fill="#E2EEFC"/>
<path d="M397.514 359.473H376.778V363.313H397.514V359.473Z" fill="#E2EEFC"/>
<path d="M422.602 359.473H401.866V363.313H422.602V359.473Z" fill="#E2EEFC"/>
<path d="M447.178 359.473H426.442V363.313H447.178V359.473Z" fill="#E2EEFC"/>
<path d="M397.514 366.385H376.778V370.225H397.514V366.385Z" fill="#E2EEFC"/>
<path d="M422.602 366.385H401.866V370.225H422.602V366.385Z" fill="#E2EEFC"/>
<path d="M447.178 366.385H426.442V370.225H447.178V366.385Z" fill="#E2EEFC"/>
<path d="M447.178 376.919H376.778V402.519H447.178V376.919Z" fill="#E2EEFC"/>
<path d="M456.591 303.856H430.479V427.287H456.591V303.856Z" fill="#CCDEFF"/>
<path d="M461.804 315.159H454.124V427.287H461.804V315.159Z" fill="#CCDEFF"/>
<path d="M117.023 362.521H76.5747V427.545H117.023V362.521Z" fill="#CCDEFF"/>
<path d="M110.896 368.942H80.8164V374.83H110.896V368.942Z" fill="#E2EEFC"/>
<path d="M110.896 378.777H80.8164V384.665H110.896V378.777Z" fill="#E2EEFC"/>
<path d="M110.912 388.61H80.832V394.498H110.912V388.61Z" fill="#E2EEFC"/>
<path d="M110.912 398.244H80.832V404.132H110.912V398.244Z" fill="#E2EEFC"/>
<path d="M146.489 341.786H106.041V427.546H146.489V341.786Z" fill="#CCDEFF"/>
<path d="M233.045 358.682H142.648V427.546H233.045V358.682Z" fill="#CCDEFF"/>
<path d="M76.5749 389.401H54.0469V427.545H76.5749V389.401Z" fill="#CCDEFF"/>
<path d="M158.428 326.39H157.66V358.681H158.428V326.39Z" fill="#CCDEFF"/>
<path d="M167.05 333.824H166.282V358.682H167.05V333.824Z" fill="#CCDEFF"/>
<path d="M151.621 321.236H149.829V358.681H151.621V321.236Z" fill="#CCDEFF"/>
<path d="M88.7502 353.201H81.3262V362.522H88.7502V353.201Z" fill="#CCDEFF"/>
<path d="M125.243 331.712H109.115V341.783H125.243V331.712Z" fill="#CCDEFF"/>
<path d="M139.349 321.236H132.437V341.785H139.349V321.236Z" fill="#CCDEFF"/>
<path d="M98.9438 339.958H92.7998V362.522H98.9438V339.958Z" fill="#CCDEFF"/>
<path d="M62.8788 393.114H56.8628V399.13H62.8788V393.114Z" fill="#E2EEFC"/>
<path d="M72.7347 393.114H66.7188V399.13H72.7347V393.114Z" fill="#E2EEFC"/>
<path d="M62.8788 403.226H56.8628V409.242H62.8788V403.226Z" fill="#E2EEFC"/>
<path d="M72.7347 403.226H66.7188V409.242H72.7347V403.226Z" fill="#E2EEFC"/>
<path d="M62.8788 413.337H56.8628V419.353H62.8788V413.337Z" fill="#E2EEFC"/>
<path d="M72.7347 413.337H66.7188V419.353H72.7347V413.337Z" fill="#E2EEFC"/>
<path d="M113.216 347.236H110.912V424.804H113.216V347.236Z" fill="#E2EEFC"/>
<path d="M123.456 347.236H121.152V424.804H123.456V347.236Z" fill="#E2EEFC"/>
<path d="M132.675 347.236H130.371V424.804H132.675V347.236Z" fill="#E2EEFC"/>
<path d="M142.403 347.236H140.099V424.804H142.403V347.236Z" fill="#E2EEFC"/>
<path d="M220.618 359.375H180.17V424.399H220.618V359.375Z" fill="#CCDEFF"/>
<path d="M214.49 365.798H184.41V371.686H214.49V365.798Z" fill="#E2EEFC"/>
<path d="M214.49 375.631H184.41V381.519H214.49V375.631Z" fill="#E2EEFC"/>
<path d="M214.508 385.467H184.428V391.355H214.508V385.467Z" fill="#E2EEFC"/>
<path d="M214.508 395.1H184.428V400.988H214.508V395.1Z" fill="#E2EEFC"/>
<path d="M250.084 338.639H209.636V424.399H250.084V338.639Z" fill="#CCDEFF"/>
<path d="M336.64 355.535H246.244V424.399H336.64V355.535Z" fill="#CCDEFF"/>
<path d="M180.17 386.255H157.642V424.399H180.17V386.255Z" fill="#CCDEFF"/>
<path d="M262.021 323.246H261.253V355.538H262.021V323.246Z" fill="#CCDEFF"/>
<path d="M270.646 330.678H269.878V355.535H270.646V330.678Z" fill="#CCDEFF"/>
<path d="M255.217 318.09H253.425V355.535H255.217V318.09Z" fill="#CCDEFF"/>
<path d="M192.345 350.057H184.921V359.378H192.345V350.057Z" fill="#CCDEFF"/>
<path d="M228.836 328.568H212.708V338.639H228.836V328.568Z" fill="#CCDEFF"/>
<path d="M242.944 318.09H236.032V338.639H242.944V318.09Z" fill="#CCDEFF"/>
<path d="M202.54 336.814H196.396V359.378H202.54V336.814Z" fill="#CCDEFF"/>
<path d="M166.474 389.967H160.458V395.983H166.474V389.967Z" fill="#E2EEFC"/>
<path d="M176.33 389.967H170.314V395.983H176.33V389.967Z" fill="#E2EEFC"/>
<path d="M166.474 400.08H160.458V406.096H166.474V400.08Z" fill="#E2EEFC"/>
<path d="M176.33 400.08H170.314V406.096H176.33V400.08Z" fill="#E2EEFC"/>
<path d="M166.474 410.191H160.458V416.207H166.474V410.191Z" fill="#E2EEFC"/>
<path d="M176.33 410.191H170.314V416.207H176.33V410.191Z" fill="#E2EEFC"/>
<path d="M216.811 344.09H214.507V421.658H216.811V344.09Z" fill="#E2EEFC"/>
<path d="M227.052 344.09H224.748V421.658H227.052V344.09Z" fill="#E2EEFC"/>
<path d="M236.27 344.09H233.966V421.658H236.27V344.09Z" fill="#E2EEFC"/>
<path d="M245.998 344.09H243.694V421.658H245.998V344.09Z" fill="#E2EEFC"/>
<path d="M324.162 353.702H283.714V418.726H324.162V353.702Z" fill="#CCDEFF"/>
<path d="M318.034 360.125H287.954V366.013H318.034V360.125Z" fill="#E2EEFC"/>
<path d="M318.034 369.958H287.954V375.846H318.034V369.958Z" fill="#E2EEFC"/>
<path d="M318.049 379.792H287.969V385.68H318.049V379.792Z" fill="#E2EEFC"/>
<path d="M318.049 389.427H287.969V395.315H318.049V389.427Z" fill="#E2EEFC"/>
<path d="M353.628 332.966H313.18V418.726H353.628V332.966Z" fill="#CCDEFF"/>
<path d="M440.184 349.862H349.788V418.726H440.184V349.862Z" fill="#CCDEFF"/>
<path d="M283.715 380.583H261.187V418.727H283.715V380.583Z" fill="#CCDEFF"/>
<path d="M365.565 317.57H364.797V349.862H365.565V317.57Z" fill="#CCDEFF"/>
<path d="M374.187 325.005H373.419V349.862H374.187V325.005Z" fill="#CCDEFF"/>
<path d="M358.758 312.417H356.966V349.863H358.758V312.417Z" fill="#CCDEFF"/>
<path d="M295.887 344.381H288.463V353.702H295.887V344.381Z" fill="#CCDEFF"/>
<path d="M332.38 322.896H316.252V332.967H332.38V322.896Z" fill="#CCDEFF"/>
<path d="M346.488 312.417H339.576V332.967H346.488V312.417Z" fill="#CCDEFF"/>
<path d="M306.082 331.141H299.938V353.705H306.082V331.141Z" fill="#CCDEFF"/>
<path d="M270.018 384.294H264.002V390.31H270.018V384.294Z" fill="#E2EEFC"/>
<path d="M279.874 384.294H273.858V390.31H279.874V384.294Z" fill="#E2EEFC"/>
<path d="M270.018 394.406H264.002V400.422H270.018V394.406Z" fill="#E2EEFC"/>
<path d="M279.874 394.406H273.858V400.422H279.874V394.406Z" fill="#E2EEFC"/>
<path d="M270.018 404.519H264.002V410.535H270.018V404.519Z" fill="#E2EEFC"/>
<path d="M279.874 404.519H273.858V410.535H279.874V404.519Z" fill="#E2EEFC"/>
<path d="M320.353 338.417H318.049V415.985H320.353V338.417Z" fill="#E2EEFC"/>
<path d="M330.593 338.417H328.289V415.985H330.593V338.417Z" fill="#E2EEFC"/>
<path d="M339.812 338.417H337.508V415.985H339.812V338.417Z" fill="#E2EEFC"/>
<path d="M349.542 338.417H347.238V415.985H349.542V338.417Z" fill="#E2EEFC"/>
<path d="M370.742 395.94H329.27V427.507H370.742V395.94Z" fill="#CCDEFF"/>
<path d="M409.664 419.541H408.128V421.077H409.664V419.541Z" fill="#CCDEFF"/>
<path d="M101.509 153.482H83.5894V426.291H101.509V153.482Z" fill="#E46B15"/>
<path d="M145.308 183.905H73.8125V206.403H145.308V183.905Z" fill="#FEBE3D"/>
<path d="M39.7876 193.58L73.8126 171.505V215.652L39.7876 193.58Z" fill="#FEBE3D"/>
<path d="M101.509 206.402H83.5894V210.754H101.509V206.402Z" fill="#A54545"/>
<path d="M145.308 206.095H73.8125V207.887H145.308V206.095Z" fill="#F8A23A"/>
<path d="M145.308 183.905H73.8125V186.284H145.308V183.905Z" fill="#FCE373"/>
<path d="M349.273 124.688L342.914 122.64C345.474 115.052 356.718 112.279 362.498 117.817C359.465 114.186 361.986 107.594 366.669 106.913C371.351 106.233 375.629 111.841 373.762 116.183C377.385 112.008 385.218 112.981 387.707 117.916C390.694 114.215 397.232 114.332 400.089 118.131C413.526 115.618 427.4 116.973 440.097 122.038L326.623 127.545C334.794 126.057 342.966 124.565 349.273 124.688Z" fill="#E2EEFC"/>
<path d="M476.475 340.854H363.909V395.527H476.475V340.854Z" fill="#FEBE3D"/>
<path d="M391.368 340.854H363.909V395.527H391.368V340.854Z" fill="#F8A23A"/>
<path d="M443.891 289.349H377.638V340.851H443.891V289.349Z" fill="#FEBE3D"/>
<path d="M394.363 289.349H377.638V340.851H394.363V289.349Z" fill="#F8A23A"/>
<path d="M377.467 340.979L394.36 339.443L428.621 341.215L377.467 340.979Z" fill="#EC7F37"/>
<path d="M473.121 345.544H450.125V350.603H473.121V345.544Z" fill="white"/>
<path d="M473.49 353.262H450.494V358.321H473.49V353.262Z" fill="white"/>
<path d="M441.49 292.316H425.408V297.375H441.49V292.316Z" fill="white"/>
<path d="M441.49 299.23H425.408V304.289H441.49V299.23Z" fill="white"/>
<path d="M476.475 340.854H363.909V395.527H476.475V340.854Z" fill="#FEBE3D"/>
<path d="M391.368 340.854H363.909V395.527H391.368V340.854Z" fill="#F8A23A"/>
<path d="M443.891 289.349H377.638V340.851H443.891V289.349Z" fill="#FEBE3D"/>
<path d="M394.363 289.349H377.638V340.851H394.363V289.349Z" fill="#F8A23A"/>
<path d="M377.467 340.979L394.36 339.443L428.621 341.215L377.467 340.979Z" fill="#EC7F37"/>
<path d="M473.121 345.544H450.125V350.603H473.121V345.544Z" fill="white"/>
<path d="M473.49 353.262H450.494V358.321H473.49V353.262Z" fill="white"/>
<path d="M441.49 292.316H425.408V297.375H441.49V292.316Z" fill="white"/>
<path d="M441.49 299.23H425.408V304.289H441.49V299.23Z" fill="white"/>
<path d="M126.559 76.0321L132.777 73.595C129.756 66.171 118.349 64.123 112.929 70.011C115.727 66.1966 112.796 59.771 108.081 59.3947C103.365 59.0184 99.4382 64.8782 101.583 69.092C97.705 65.1521 89.9482 66.619 87.7748 71.7006C84.5594 68.1934 78.0468 68.7182 75.4305 72.6939C61.8627 71.0315 48.1018 73.2581 35.7505 79.1144L149.348 77.4632C141.097 76.4776 132.846 75.4997 126.559 76.0321Z" fill="#E2EEFC"/>
<path d="M473.334 426.76H38.6639C34.4223 426.76 30.9839 430.198 30.9839 434.44C30.9839 438.681 34.4223 442.12 38.6639 442.12H473.334C477.576 442.12 481.014 438.681 481.014 434.44C481.014 430.198 477.576 426.76 473.334 426.76Z" fill="#1A1A35"/>
<path d="M387.279 227.144C387.279 212.808 398.592 201.201 412.549 201.201C426.506 201.201 437.819 212.815 437.819 227.144C437.819 241.472 413.581 267.689 413.581 267.689C413.581 267.689 387.279 241.472 387.279 227.144Z" fill="#004894"/>
<path d="M412.549 240.865C420.112 240.865 426.242 234.735 426.242 227.172C426.242 219.609 420.112 213.479 412.549 213.479C404.986 213.479 398.855 219.609 398.855 227.172C398.855 234.735 404.986 240.865 412.549 240.865Z" fill="white"/>
<path d="M354.268 399.104C354.268 398.153 354.646 397.242 355.318 396.57C355.99 395.898 356.902 395.52 357.852 395.52H474.332C475.283 395.52 476.194 395.898 476.866 396.57C477.538 397.242 477.916 398.153 477.916 399.104C477.916 400.055 477.538 400.966 476.866 401.638C476.194 402.31 475.283 402.688 474.332 402.688H357.852C356.902 402.688 355.99 402.31 355.318 401.638C354.646 400.966 354.268 400.055 354.268 399.104Z" fill="#1A1A35"/>
<path d="M326.62 232.356C326.62 231.405 326.998 230.494 327.67 229.822C328.342 229.15 329.254 228.772 330.204 228.772H350.684C351.635 228.772 352.546 229.15 353.218 229.822C353.891 230.494 354.268 231.405 354.268 232.356C354.268 233.307 353.891 234.218 353.218 234.89C352.546 235.562 351.635 235.94 350.684 235.94H330.204C329.254 235.94 328.342 235.562 327.67 234.89C326.998 234.218 326.62 233.307 326.62 232.356Z" fill="#336DA9"/>
<path d="M354.268 405.924C353.318 405.924 352.406 405.546 351.734 404.874C351.062 404.202 350.684 403.29 350.684 402.34V222.628C350.684 221.677 351.062 220.766 351.734 220.094C352.406 219.422 353.318 219.044 354.268 219.044C355.219 219.044 356.13 219.422 356.802 220.094C357.474 220.766 357.852 221.677 357.852 222.628V402.34C357.852 403.29 357.474 404.202 356.802 404.874C356.13 405.546 355.219 405.924 354.268 405.924Z" fill="#1A1A35"/>
<path d="M330.204 222.628C330.204 221.677 330.582 220.766 331.254 220.094C331.926 219.422 332.838 219.044 333.788 219.044H354.268C355.219 219.044 356.13 219.422 356.802 220.094C357.475 220.766 357.852 221.677 357.852 222.628C357.852 223.578 357.475 224.49 356.802 225.162C356.13 225.834 355.219 226.212 354.268 226.212H333.788C332.838 226.212 331.926 225.834 331.254 225.162C330.582 224.49 330.204 223.578 330.204 222.628Z" fill="#004894"/>
<path d="M354.552 434.44C364.308 434.44 372.216 426.531 372.216 416.776C372.216 407.02 364.308 399.112 354.552 399.112C344.797 399.112 336.888 407.02 336.888 416.776C336.888 426.531 344.797 434.44 354.552 434.44Z" fill="#1A1A35"/>
<path d="M365.65 419.138C366.951 413.011 363.039 406.989 356.913 405.688C350.786 404.387 344.765 408.299 343.463 414.426C342.162 420.552 346.074 426.574 352.201 427.875C358.328 429.176 364.349 425.264 365.65 419.138Z" fill="#38385C"/>
<path d="M222.735 424.269L192.374 420.329C192.553 418.72 192.845 417.125 193.246 415.557C195.079 415.064 196.897 414.513 198.699 413.906C198.768 414.57 198.986 415.211 199.337 415.78C199.902 416.624 201.103 417.136 201.968 416.609C201.838 415.368 201.712 414.131 201.582 412.887C201.956 412.751 202.322 412.61 202.695 412.464C202.695 412.656 202.695 412.848 202.695 413.038C202.665 413.742 202.606 414.459 202.793 415.14C202.98 415.821 203.476 416.463 204.17 416.601C204.864 416.74 205.665 416.148 205.565 415.452C205.383 414.15 205.198 412.846 205.012 411.54C205.399 411.382 205.78 411.218 206.159 411.054C206.374 412.645 206.588 414.237 206.799 415.831C207.595 416.343 208.711 415.616 208.962 414.704C209.097 414.089 209.064 413.449 208.865 412.851C208.783 412.541 208.678 412.234 208.581 411.935C208.581 411.891 208.55 411.845 208.537 411.801C208.345 411.265 208.232 410.704 208.199 410.135C208.532 409.984 208.862 409.828 209.19 409.669C209.252 409.759 209.318 409.846 209.385 409.925C210.891 411.91 213.01 413.343 215.413 414.003C217.816 414.663 220.37 414.513 222.679 413.576C222.989 413.448 223.296 413.32 223.59 413.156C223.319 416.768 223.053 420.352 222.735 424.269Z" fill="#E46B15"/>
<path d="M222.538 426.583C212.429 425.06 202.314 423.534 192.138 422.206C192.212 421.578 192.292 420.949 192.374 420.329C202.496 421.645 212.616 422.958 222.735 424.269C222.669 425.027 222.605 425.797 222.538 426.583Z" fill="black"/>
<path d="M206.789 415.828C206.577 414.236 206.364 412.644 206.149 411.051C206.83 410.754 207.511 410.447 208.197 410.132C208.229 410.701 208.343 411.262 208.535 411.799C208.548 411.842 208.566 411.888 208.578 411.932C208.676 412.232 208.781 412.539 208.863 412.848C209.061 413.446 209.095 414.087 208.96 414.702C208.701 415.616 207.585 416.345 206.789 415.828Z" fill="white"/>
<path d="M204.16 416.599C203.466 416.463 202.972 415.815 202.783 415.137C202.593 414.459 202.655 413.739 202.685 413.035C202.685 412.846 202.685 412.654 202.685 412.462C203.453 412.167 204.221 411.855 204.989 411.535C205.177 412.839 205.361 414.143 205.542 415.447C205.655 416.146 204.851 416.732 204.16 416.599Z" fill="white"/>
<path d="M201.969 416.609C201.104 417.139 199.903 416.625 199.337 415.78C198.985 415.212 198.767 414.571 198.7 413.906C199.666 413.583 200.627 413.242 201.582 412.882C201.71 414.131 201.838 415.368 201.969 416.609Z" fill="white"/>
<path d="M222.666 413.578C220.357 414.515 217.804 414.665 215.401 414.006C212.998 413.346 210.879 411.913 209.372 409.928C210.597 406.935 211.247 403.738 211.29 400.504C216.115 401.828 220.938 403.146 225.587 404.385C224.616 407.449 223.642 410.513 222.666 413.578Z" fill="#FBB8A5"/>
<path d="M290.406 406.658C281.41 411.475 272.416 416.295 263.424 421.12C262.633 419.707 261.943 418.24 261.358 416.73C262.553 415.26 263.711 413.756 264.834 412.216C265.277 412.718 265.827 413.113 266.445 413.371C267.397 413.729 268.672 413.448 269.069 412.516L266.588 409.713C266.813 409.385 267.028 409.057 267.248 408.722C267.364 408.875 267.469 409.034 267.574 409.193C267.958 409.784 268.326 410.401 268.874 410.847C269.422 411.292 270.2 411.525 270.843 411.233C271.485 410.941 271.795 409.997 271.309 409.487C270.402 408.535 269.494 407.582 268.582 406.628C268.805 406.274 269.017 405.919 269.232 405.565C270.331 406.733 271.434 407.908 272.53 409.08C273.477 409.037 273.961 407.8 273.633 406.907C273.385 406.328 272.985 405.827 272.476 405.455C272.22 405.253 271.964 405.061 271.708 404.874L271.595 404.792C271.127 404.468 270.708 404.077 270.351 403.633C270.533 403.315 270.712 402.998 270.886 402.678C270.989 402.714 271.094 402.747 271.199 402.778C273.579 403.516 276.136 403.45 278.475 402.59C280.814 401.729 282.804 400.121 284.137 398.016C284.313 397.732 284.482 397.442 284.636 397.146C286.512 400.21 288.392 403.292 290.406 406.658Z" fill="#E46B15"/>
<path d="M291.584 408.656C282.473 413.294 273.362 417.933 264.307 422.774C264.003 422.218 263.701 421.66 263.406 421.11L290.396 406.659C290.796 407.314 291.19 407.977 291.584 408.656Z" fill="black"/>
<path d="M272.525 409.065L269.228 405.55C269.609 404.91 269.996 404.27 270.349 403.617C270.706 404.061 271.125 404.452 271.593 404.777L271.706 404.859C271.962 405.046 272.218 405.235 272.474 405.44C272.983 405.811 273.383 406.312 273.631 406.891C273.958 407.78 273.475 409.021 272.525 409.065Z" fill="white"/>
<path d="M270.848 411.221C270.206 411.513 269.427 411.274 268.88 410.834C268.332 410.394 267.963 409.772 267.579 409.18C267.474 409.024 267.369 408.863 267.254 408.709C267.71 408.021 268.155 407.319 268.59 406.615C269.502 407.568 270.41 408.521 271.317 409.475C271.788 409.984 271.475 410.929 270.848 411.221Z" fill="white"/>
<path d="M269.056 412.503C268.659 413.437 267.384 413.716 266.432 413.358C265.814 413.101 265.263 412.706 264.822 412.204C265.417 411.379 266.002 410.544 266.575 409.697C267.405 410.636 268.232 411.571 269.056 412.503Z" fill="white"/>
<path d="M284.134 398.001C282.801 400.106 280.811 401.714 278.472 402.575C276.134 403.435 273.576 403.501 271.196 402.762C270.453 399.615 269.123 396.636 267.277 393.982C271.972 392.251 276.664 390.518 281.165 388.823C282.156 391.88 283.146 394.939 284.134 398.001Z" fill="#FBB8A5"/>
<path d="M261.351 399.101L222.554 231.685L263.03 244.337L287.565 388.902L261.351 399.101Z" fill="#1A1A35"/>
<path d="M206.75 403.62L216.934 241.044L259.315 250.67L231.303 405.798L206.75 403.62Z" fill="#38385C"/>
<path d="M217.416 156.928C219.141 156.828 219.039 157.44 220.304 158.62C220.791 159.118 221.178 159.705 221.445 160.348C222.862 163.383 223.429 166.745 223.086 170.076C226.32 167.184 230.055 164.909 234.107 163.361C232.297 160.85 231.322 157.844 230.51 154.857C230.272 153.829 229.929 152.829 229.486 151.872C229.285 151.427 228.979 151.037 228.595 150.735C227.927 150.259 227.031 150.257 226.22 150.382C224.031 150.72 222.042 151.828 220.163 153.001C218.727 153.897 217.324 154.842 215.952 155.835C215.473 156.18 217.457 156.603 217.411 157.197" fill="#FBB089"/>
<path d="M223.294 196.754C223.294 196.754 200.192 210.191 194.447 206.175C194.447 206.175 177.121 202.816 167.45 158.991C167.165 157.71 166.887 156.391 166.618 155.036L173.274 152.287C173.274 152.287 174.438 153.684 176.292 156.065C181.34 162.542 191.486 176.289 197.092 188.874C197.092 188.874 214.725 172.265 225.749 168.361L223.294 196.754Z" fill="#336DA9"/>
<path d="M222.42 171.379C221.465 171.41 220.915 172.808 221.591 173.481C220.257 173.793 219.722 175.368 219.435 176.709C215.204 196.475 215.736 216.901 214.71 237.087C214.559 240.046 214.372 243.021 213.686 245.906C218.089 246.169 222.509 245.973 226.872 245.322C230.267 244.81 233.661 244.042 237.086 244.229C240.202 244.408 243.21 245.389 246.279 245.95C250.999 246.809 255.845 246.677 260.51 245.563C261.609 241.897 261.44 237.978 261.046 234.171C259.924 223.312 257.085 212.713 254.256 202.171C253.053 197.683 251.837 193.168 249.866 188.961C248.668 186.401 247.199 183.985 245.734 181.571L236.083 165.66C235.804 165.202 235.484 164.708 234.972 164.542C234.24 164.304 233.505 164.836 232.906 165.31C229.405 168.144 225.482 170.412 221.278 172.032" fill="#004894"/>
<path d="M235.21 160.174C229.774 163.047 224.541 166.291 219.551 169.884C220.127 170.744 220.469 171.739 220.544 172.772C220.618 173.804 220.422 174.838 219.976 175.772C225.78 170.886 232.094 166.641 238.81 163.11C237.584 162.114 236.308 161.181 234.988 160.315" fill="#38385C"/>
<path d="M297.121 205.499H196.186V259.576H297.121V205.499Z" fill="#FEBE3D"/>
<path d="M221.665 205.499H196.186V259.576H221.665V205.499Z" fill="#F8A23A"/>
<path d="M293.463 208.612H268.964V213.921H293.463V208.612Z" fill="white"/>
<path d="M293.463 215.872H268.964V221.182H293.463V215.872Z" fill="white"/>
<path d="M230.753 164.992L235.802 163.2C235.802 163.2 237.507 161.308 250.007 173.46C262.508 185.613 280.909 213.85 280.909 213.85L256.077 256.182L247.954 250.98L259.018 213.348C259.018 213.348 200.873 152.353 243.016 167.063" fill="#336DA9"/>
<path d="M248.064 250.688C246.149 251.228 244.641 252.262 242.944 253.268C242.748 253.354 242.578 253.491 242.454 253.665C242.329 253.839 242.255 254.043 242.238 254.257C241.714 256.488 240.92 258.647 239.872 260.685C242.02 261.274 244.23 261.611 246.456 261.688C246.745 261.716 247.037 261.687 247.314 261.601C247.658 261.442 247.949 261.188 248.154 260.869C248.679 260.172 249.117 259.414 249.459 258.611C251.978 258.099 254.31 257.979 256.077 256.179C253.832 255.114 251.843 252.987 249.728 251.691C249.147 251.336 248.622 250.923 248.028 250.667" fill="#FBB089"/>
<path d="M236.519 131.302C236.775 131.249 237.005 131.187 237.24 131.121L237.389 131.077L237.243 131.121C237.002 131.185 236.762 131.249 236.519 131.302Z" fill="#E1C2B0"/>
<path d="M208.896 144.077C208.86 144.622 208.87 145.169 208.927 145.713C209.17 148.365 209.997 149.66 211.062 150.159C211.137 150.196 211.215 150.227 211.295 150.254C211.917 150.453 212.584 150.472 213.217 150.308C212.961 148.629 212.756 147.016 212.598 145.613C212.48 144.612 212.39 143.718 212.342 142.976C211.983 143.232 210.706 141.775 210.706 141.775C209.595 142.008 209.047 142.979 208.896 144.077Z" fill="#E88A78"/>
<path d="M226.288 161.68C226.288 161.68 226.288 161.68 226.288 161.654C226.288 161.628 226.271 161.677 226.288 161.68ZM221.168 159.557C222.011 159.813 223.314 157.73 223.984 157.891C224.847 158.101 225.503 158.226 225.805 158.28L225.871 158.293V158.331L225.92 158.3H225.976V158.262C226.13 158.167 226.465 157.96 226.911 157.663C227.213 157.466 227.566 157.223 227.952 156.949C228.646 156.455 230.602 156.549 231.406 155.863C231.559 157.143 231.17 157.676 231.995 159.432C231.854 159.604 231.705 159.768 231.547 159.923C231.058 160.419 230.508 160.85 229.908 161.203C229.057 161.703 228.125 162.049 227.154 162.227C226.317 162.384 225.463 162.417 224.617 162.325C223.791 162.235 222.985 162.017 222.226 161.68C222.041 161.598 222.062 161.465 221.885 161.37C222.131 160.174 222.374 163.198 221.184 159.557H221.168Z" fill="#E88A78"/>
<path d="M235.461 150.976C236.198 151.388 237.041 151.572 237.883 151.503C238.1 151.475 238.313 151.418 238.515 151.334C239.565 150.902 240.471 149.706 240.998 147.238C241.561 144.591 241.014 143.519 240.112 143.209H240.1C239.986 143.318 239.853 143.404 239.708 143.465C239.222 143.951 237.312 144.036 237 144.579C236.946 144.847 236.884 145.134 236.818 145.436C236.79 145.569 236.759 145.692 236.728 145.846L236.682 146.056L236.582 146.486C236.582 146.506 236.582 146.527 236.567 146.55C236.505 146.806 236.444 147.08 236.377 147.351C236.357 147.441 236.334 147.535 236.311 147.628V147.661C236.278 147.802 236.239 147.945 236.206 148.088C236.173 148.232 236.152 148.303 236.124 148.413C235.917 149.233 235.699 150.093 235.461 150.976Z" fill="#E88A78"/>
<path d="M216.412 139.067L222.646 137.82C222.463 137.721 222.273 137.636 222.077 137.564C221.226 137.267 220.312 137.194 219.423 137.352C218.535 137.51 217.703 137.895 217.006 138.468C216.79 138.648 216.591 138.849 216.412 139.067Z" fill="#FFECE6"/>
<path d="M212.319 142.976C212.378 143.718 212.47 144.614 212.575 145.615C212.734 147.018 212.949 148.631 213.194 150.311C213.304 151.079 213.422 151.847 213.545 152.615C213.801 154.232 215.066 155.768 216.617 157.092C217.606 157.919 218.657 158.669 219.761 159.335C220.513 159.795 221.233 160.19 221.842 160.51C222.628 160.922 223.235 161.201 223.514 161.329L223.575 161.359L223.629 161.383L223.683 161.365C223.854 161.308 224.231 161.19 224.735 161.009C225.075 160.888 225.477 160.753 225.918 160.566C226.709 160.254 227.635 159.857 228.583 159.383C229.771 158.802 230.901 158.111 231.959 157.317C233.257 156.316 234.294 155.154 234.663 153.854C234.936 152.886 235.2 151.921 235.448 150.984C235.687 150.101 235.904 149.24 236.104 148.424C236.129 148.314 236.158 148.206 236.186 148.099C236.214 147.991 236.257 147.809 236.291 147.671V147.638C236.311 147.546 236.337 147.451 236.357 147.361C236.424 147.085 236.488 146.819 236.547 146.56C236.553 146.539 236.558 146.518 236.562 146.496C236.596 146.348 236.629 146.204 236.662 146.066L236.708 145.856C236.739 145.715 236.769 145.58 236.798 145.447C236.864 145.144 236.926 144.855 236.979 144.589C236.964 144.616 236.952 144.644 236.943 144.673C236.885 144.271 236.826 143.867 236.764 143.465C236.316 142.697 235.651 141.542 234.883 140.227L234.496 139.52L233.943 138.581L233.523 137.864L233.093 137.137C232.865 136.75 232.635 136.369 232.405 135.977C231.517 136.676 230.588 137.323 229.624 137.912C229.463 137.916 229.301 137.929 229.141 137.951L229.368 138.066C224.73 140.822 219.461 142.34 214.067 142.474C213.811 142.474 213.555 142.474 213.299 142.474C213.248 142.479 212.352 143.012 212.319 142.976Z" fill="#FBB089"/>
<path d="M235.942 119.04C235.889 119.009 235.835 118.976 235.778 118.948C237.081 120.003 238.243 121.22 239.237 122.57C238.485 121.112 237.345 119.89 235.942 119.04ZM229.192 137.981C222.08 139.031 213.391 139.955 206.09 139.676C206.111 139.712 206.136 139.75 206.159 139.786C206.656 140.703 207.38 142.571 208.246 143.562C208.421 143.777 208.637 143.956 208.881 144.09C208.879 144.085 208.879 144.081 208.881 144.077C209.042 142.978 209.59 142.008 210.673 141.773C210.673 141.773 211.953 143.222 212.311 142.973C212.344 143.009 213.227 142.477 213.273 142.477C213.529 142.477 213.785 142.477 214.041 142.477C219.447 142.345 224.728 140.824 229.376 138.061L229.192 137.981ZM206.963 135.511H204.841H206.966C206.966 135.511 206.961 135.506 206.961 135.503L206.963 135.511ZM207.455 122.644L207.562 122.693C208.478 121.428 209.541 120.278 210.729 119.265C209.419 120.155 208.304 121.302 207.452 122.637L207.455 122.644Z" fill="#38385C"/>
<path d="M243.041 135.455C242.829 136.356 242.614 137.247 242.376 138.145C242.235 138.675 242.086 139.197 241.925 139.714C241.392 140.805 240.862 141.896 240.333 142.986L240.171 143.142L240.112 143.199H240.1C239.987 143.308 239.854 143.395 239.708 143.455C239.219 143.941 237.309 144.025 237 144.568C236.984 144.595 236.972 144.623 236.964 144.653L236.787 143.444L236.718 142.978C236.419 140.946 236.12 138.914 235.819 136.883C236.713 136.724 237.542 136.571 238.297 136.43C240.363 136.041 241.861 135.731 242.557 135.583H242.585L242.995 135.496C242.995 135.496 242.995 135.473 242.995 135.46L243.041 135.455Z" fill="#38385C"/>
<path d="M232.399 135.972L233.088 137.132L233.518 137.859C233.659 138.099 233.802 138.337 233.938 138.576L234.496 139.52L234.911 140.229C235.679 141.545 236.344 142.689 236.792 143.468L236.723 143.002C236.329 140.331 235.936 137.663 235.543 134.999C235.459 134.449 235.379 133.898 235.287 133.351C235.121 133.522 234.957 133.694 234.775 133.863C234.022 134.609 233.229 135.313 232.399 135.972Z" fill="#E88A78"/>
<path d="M226.304 121.295C226.499 121.311 226.693 121.331 226.888 121.357C227.052 121.377 227.216 121.4 227.379 121.428C227.489 121.446 227.6 121.464 227.712 121.487L228.058 121.562L228.401 121.643C228.552 121.682 228.705 121.723 228.857 121.769C229.051 121.825 229.246 121.887 229.435 121.953L229.596 122.01C229.724 122.056 229.852 122.099 229.975 122.15C230.047 122.176 230.121 122.207 230.19 122.237L230.346 122.301C230.408 122.324 230.464 122.35 230.523 122.378C230.702 122.458 230.876 122.539 231.05 122.634C231.225 122.729 231.393 122.806 231.562 122.89C231.655 122.939 231.744 122.987 231.834 123.041C231.923 123.095 231.964 123.115 232.026 123.154L232.08 123.187C232.117 123.207 232.154 123.23 232.19 123.254L232.333 123.341C232.914 123.706 233.468 124.111 233.992 124.554L234.076 124.626C234.464 124.962 234.834 125.317 235.185 125.691C235.236 125.745 235.287 125.801 235.336 125.857C235.385 125.914 235.492 126.029 235.566 126.113C235.641 126.198 235.715 126.287 235.784 126.369C235.853 126.451 235.955 126.582 236.04 126.687C236.091 126.751 236.137 126.815 236.183 126.879C236.268 126.989 236.345 127.101 236.424 127.217L236.606 127.485C236.647 127.547 236.688 127.611 236.723 127.672C236.745 127.704 236.765 127.736 236.782 127.77L236.849 127.875C236.928 128.005 237.005 128.131 237.079 128.269C237.153 128.407 237.225 128.525 237.292 128.673C237.358 128.822 237.427 128.945 237.491 129.083C237.555 129.221 237.614 129.359 237.673 129.498C237.704 129.567 237.729 129.638 237.758 129.707C237.781 129.643 237.804 129.579 237.822 129.513C237.84 129.446 237.85 129.426 237.863 129.38C237.863 129.38 237.863 129.38 237.863 129.367C237.87 129.352 237.875 129.337 237.878 129.321C237.878 129.321 237.878 129.321 237.878 129.308C237.893 129.259 237.906 129.211 237.919 129.162C237.952 129.05 237.978 128.937 238.001 128.822C238.001 128.781 238.019 128.74 238.026 128.696C238.034 128.653 238.044 128.612 238.049 128.571C238.055 128.53 238.073 128.427 238.083 128.358C238.084 128.346 238.084 128.333 238.083 128.32V128.264C238.083 128.202 238.098 128.143 238.103 128.084C238.103 128.072 238.103 128.056 238.103 128.043C238.103 127.951 238.121 127.862 238.126 127.77C238.131 127.677 238.126 127.613 238.126 127.537C238.126 127.406 238.126 127.281 238.126 127.145C238.129 127.12 238.129 127.095 238.126 127.071C238.126 127.022 238.126 126.971 238.126 126.92V126.781C238.126 126.682 238.111 126.579 238.098 126.479C238.098 126.479 238.098 126.456 238.098 126.446C238.098 126.344 238.073 126.241 238.057 126.139C238.042 126.036 238.032 125.985 238.016 125.908C238.001 125.832 237.988 125.755 237.97 125.678C237.965 125.644 237.957 125.611 237.947 125.578C237.947 125.532 237.924 125.486 237.914 125.44C237.904 125.394 237.883 125.315 237.863 125.251C237.842 125.187 237.863 125.197 237.842 125.171C237.822 125.146 237.809 125.053 237.791 124.997C237.745 124.849 237.694 124.7 237.637 124.554C237.612 124.488 237.586 124.419 237.558 124.352C237.497 124.203 237.43 124.055 237.358 123.909C237.333 123.858 237.31 123.807 237.281 123.755C237.238 123.668 237.189 123.581 237.143 123.499L237.056 123.348C237.025 123.297 236.997 123.246 236.967 123.197C236.905 123.098 236.841 123.001 236.775 122.906L236.639 122.714C236.57 122.619 236.496 122.527 236.424 122.437C236.352 122.347 236.273 122.258 236.196 122.181C236.119 122.104 236.091 122.063 236.037 122.01C235.984 121.956 235.884 121.856 235.804 121.779L235.548 121.559C235.492 121.513 235.438 121.464 235.382 121.421L235.149 121.242L234.988 121.126C234.906 121.07 234.824 121.014 234.732 120.963L234.476 120.809C234.417 120.776 234.361 120.742 234.299 120.712C234.238 120.681 234.184 120.65 234.122 120.622L233.959 120.543L233.728 120.44L233.554 120.369L233.477 120.34L233.395 120.31L233.232 120.251L233.022 120.184C232.853 120.133 232.681 120.087 232.51 120.046L232.266 119.995L232.036 119.954L231.959 119.941H231.921L231.729 119.913C231.649 119.913 231.57 119.892 231.488 119.887H231.381L231.199 119.875C231.102 119.875 231.007 119.875 230.91 119.875H230.848C230.748 119.875 230.646 119.875 230.546 119.875C230.38 119.875 230.218 119.887 230.055 119.903L229.893 119.918C229.783 119.918 229.676 119.944 229.568 119.959L229.246 120.015C229.138 120.036 229.031 120.059 228.926 120.084C228.821 120.11 228.716 120.136 228.611 120.166L228.321 120.256C228.3 120.262 228.278 120.27 228.257 120.279L228.096 120.32L228.001 120.353L227.733 120.463C227.656 120.494 227.584 120.53 227.51 120.566L227.315 120.663C227.297 120.67 227.28 120.679 227.264 120.691L227.08 120.791C226.81 120.941 226.551 121.11 226.304 121.295Z" fill="#82635A"/>
<path d="M242.998 135.467C242.998 135.48 242.998 135.49 242.998 135.503L242.588 135.59L242.883 135.503L242.998 135.467Z" fill="#82635A"/>
<path d="M234.422 143.644L228.186 141.279C229.34 140.925 230.58 140.965 231.709 141.394C232.838 141.822 233.792 142.614 234.422 143.644Z" fill="#101029"/>
<path d="M219.092 141.98L213.716 143.647C214.346 142.867 215.194 142.293 216.151 141.996C217.108 141.7 218.132 141.694 219.092 141.98Z" fill="#101029"/>
<path d="M217.173 143.703C217.882 143.48 218.709 144.151 219.047 145.195C219.384 146.24 219.062 147.269 218.353 147.499C217.644 147.73 216.801 147.051 216.476 146.004C216.151 144.957 216.461 143.923 217.173 143.703Z" fill="#101029"/>
<path d="M228.956 143.857C229.698 143.79 230.379 144.625 230.477 145.71C230.574 146.796 230.057 147.74 229.315 147.809C228.572 147.879 227.894 147.041 227.796 145.953C227.699 144.865 228.216 143.923 228.956 143.857Z" fill="#101029"/>
<path d="M221.535 143.05C221.833 144.53 222.134 146.009 222.436 147.487C222.381 147.3 222.282 147.129 222.147 146.988C222.013 146.847 221.846 146.74 221.662 146.677C221.478 146.613 221.281 146.595 221.089 146.623C220.896 146.651 220.712 146.724 220.554 146.838C220.395 146.951 220.266 147.101 220.177 147.274C220.089 147.447 220.042 147.639 220.043 147.834C220.043 148.029 220.091 148.221 220.18 148.394C220.27 148.567 220.4 148.716 220.559 148.828L223.823 151.132" fill="#FB6562"/>
<path d="M220.672 153.344C224.555 154.496 229.102 152.799 231.281 149.384C231.404 150.696 231.101 152.013 230.416 153.139C229.73 154.264 228.699 155.138 227.476 155.63C225.003 156.557 221.972 155.602 220.672 153.344Z" fill="white"/>
<path d="M172.774 152.527C173.297 148.995 173.818 145.463 174.339 141.931C174.482 140.966 173.402 140.139 172.437 140.283C171.471 140.426 170.747 141.307 170.468 142.236C170.189 143.165 170.268 144.169 170.35 145.142C169.326 144.732 168.277 144.317 167.173 144.261C166.07 144.205 164.885 144.571 164.229 145.459C163.668 146.221 163.313 147.116 163.2 148.055C163.086 148.995 163.218 149.948 163.581 150.822C163.945 151.696 164.528 152.461 165.274 153.043C166.021 153.624 166.905 154.003 167.841 154.143C167.893 154.47 167.944 154.798 167.992 155.123C169.391 153.938 171.019 153.054 172.774 152.527Z" fill="#FBB089"/>
<path d="M176.297 156.065L167.45 158.991C167.165 157.71 166.887 156.391 166.618 155.036L173.274 152.287C173.274 152.287 174.444 153.684 176.297 156.065Z" fill="#004894"/>
<path d="M243.041 134.167C243.041 134.605 243.026 135.04 242.998 135.467L242.88 135.503H203.891C203.861 135.063 203.845 134.618 203.845 134.167C203.845 133.64 203.866 133.12 203.907 132.603C204.192 129.046 205.444 125.635 207.526 122.737C209.607 119.839 212.441 117.565 215.72 116.159C219 114.753 222.601 114.269 226.135 114.759C229.67 115.249 233.003 116.695 235.776 118.94C238.677 121.288 240.847 124.415 242.033 127.954C242.179 128.386 242.307 128.827 242.422 129.272C242.833 130.871 243.041 132.516 243.041 134.167Z" fill="#004894"/>
<path d="M242.88 135.504L242.586 135.591H242.558C241.861 135.739 240.364 136.049 238.298 136.438C237.53 136.579 236.713 136.732 235.82 136.891C233.874 137.234 231.624 137.608 229.189 137.966C222.078 139.016 213.389 139.94 206.088 139.661C202.45 139.525 199.16 139.088 196.577 138.22C196.542 138.207 196.577 138.194 196.577 138.158C196.406 135.017 203.845 135.506 203.845 135.506H206.976H227.405H242.893L242.88 135.504Z" fill="#E46B15"/>
</svg>
